<?xml version="1.0" encoding="utf-8"?>
<!-- Generator: Adobe Illustrator 16.0.0, SVG Export Plug-In . SVG Version: 6.00 Build 0)  -->
<!DOCTYPE svg PUBLIC "-//W3C//DTD SVG 1.1//EN" "http://www.w3.org/Graphics/SVG/1.1/DTD/svg11.dtd">
<svg version="1.1" id="Layer_1" xmlns="http://www.w3.org/2000/svg" xmlns:xlink="http://www.w3.org/1999/xlink" x="0px" y="0px"
	 width="85.631px" height="86.566px" viewBox="0 0 85.631 86.566" enable-background="new 0 0 85.631 86.566" xml:space="preserve">
<path fill="#FEFEFE" d="M2.049,2.886c26.205,0,52.41,0.022,78.615-0.049c1.725-0.004,2.07,0.339,2.065,2.065
	c-0.071,25.532-0.071,51.065,0,76.599c0.005,1.725-0.339,2.07-2.065,2.065c-25.533-0.072-51.066-0.072-76.599,0
	C2.339,83.571,1.996,83.227,2,81.501C2.071,55.296,2.049,29.091,2.049,2.886z"/>
<path fill-rule="evenodd" clip-rule="evenodd" fill="#AFAFBC" d="M81.329,44.074c-0.088,21.101-17.138,38.015-38.238,37.931
	C22.153,81.921,5.004,64.594,5.149,43.667C5.293,22.842,22.506,5.816,43.374,5.855C64.449,5.896,81.416,22.981,81.329,44.074z"/>
<path fill-rule="evenodd" clip-rule="evenodd" fill="#AFAFBC" d="M79.202,43.999c0.602,19.276-16.023,36.103-35.844,36.017
	C23.867,79.93,7.072,64.447,7.185,43.633C7.292,23.753,23.58,7.835,43.47,7.88C63.711,7.926,79.826,24.95,79.202,43.999z"/>
<path fill-rule="evenodd" clip-rule="evenodd" fill="#FEFEFE" d="M58.907,22.061c4.283,0.772,7.988,2.546,10.636,6.148
	c0.149,0.747,0.58,1.329,1.091,1.864l-0.012-0.017c0.179,1.417,0.768,2.832,0.033,4.256c-0.018,0.599-0.037,1.198-0.055,1.798
	c-1.893,1.399-3.603-0.146-5.398-0.326c-0.26-0.044-0.513-0.114-0.763-0.195c-2.944-0.853-5.883-1.729-8.851-2.499
	c-1.175-0.369-2.389-0.607-3.554-1.005c-2.553-0.754-5.152-1.335-8.07-2.304c1.775,2.682,2.97,5.231,4.62,7.514
	c0.241,0.385,0.444,0.792,0.642,1.2c0.197,0.396,0.381,0.799,0.56,1.203c0.409,0.89,0.771,1.807,1.492,2.517
	c0.555,0.916,1.635,1.583,1.366,2.889c-0.137,0.245-0.332,0.421-0.585,0.539c-9.861,1.948-19.345,0.4-28.563-3.219
	c-1.534-0.603-2.855-1.739-3.899-3.089c-0.209-0.503-0.186-0.931,0.288-1.324c0.779-0.645-0.265-0.377-0.365-0.625
	c-0.426-1.061-0.916,0.094-1.396,0.019c-1.423-0.176-1.017-1.456-1.379-2.272c-0.943-4.351,0.708-7.726,4.389-9.827
	c9.046-5.161,18.79-6.703,29.057-4.907c0.569,0.1,1.161,0.065,1.743,0.094c0.973,0.714,2.148,0.101,3.173,0.48
	c0.542,0.465,1.196,0.511,1.865,0.503C57.481,22.118,58.252,21.897,58.907,22.061z"/>
<path fill-rule="evenodd" clip-rule="evenodd" fill="#CBCC65" d="M16.744,35.133c0.649,0.561,0.454,1.674,1.355,2.07
	c0.843,0.202,1.379,0.697,1.517,1.578c4.715,4.373,10.733,5.421,16.722,6.396c5.319,0.866,10.683,0.754,16.017-0.083
	c1.209,0.884,0.249,2.879,1.835,3.564c1.37,0.865,3.002,1.02,4.454,1.66c2.655,1.191,5.607,1.595,8.16,3.065
	c0.608,0.517,1.285,1.009,0.793,1.968c-0.04,0.319-0.079,0.638-0.119,0.957c-1.102,0.717-2.057-0.003-3.025-0.347
	c-2.247-0.798-4.443-1.755-6.83-2.078c-1.099-0.155-1.947-0.888-2.94-1.298c-1.486-0.612-2.221-0.255-2.131,1.424
	c-0.059,0.533-0.186,1.034-0.603,1.413c-1.263,0.241-2.484,0.21-3.588-0.558c0.316-1.458,1.333-0.568,2.024-0.894
	c-2.909,1.081-5.978,0.883-8.978,1.298c-7.173,0.545-13.73-1.127-19.549-5.442c-0.427-2.188-2.235-3.268-3.718-4.612
	C17.336,41.901,16.979,38.525,16.744,35.133z"/>
<path fill-rule="evenodd" clip-rule="evenodd" fill="#CBCC65" d="M51.472,57.874c-0.19,2.192-0.011,4.416-0.569,6.577
	c-3.07,1.26-6.303,0.721-9.406,0.522c-7.598-0.487-14.607-2.735-20.314-8.129c-0.809-0.764-1.488-1.569-1.977-2.552
	c0.008-0.339,0.016-0.678,0.023-1.018c0.592-0.456-0.158-1.353,0.58-1.763c0.441-0.221,0.898-0.213,1.364-0.102
	c2.602,1.162,5.51,1.688,7.715,3.68c1.306,1.542,2.933,0.949,4.516,0.667c2.098-0.071,4.2,0.15,6.238,0.459
	c4.129,0.628,8.152,0.323,12.185-0.53C52.728,56.581,52.217,57.247,51.472,57.874z"/>
<path fill-rule="evenodd" clip-rule="evenodd" fill="#AFAF55" d="M55.492,32.572c3.148,0.495,6.174,1.43,9.167,2.493
	c-0.107,0.313-0.225,0.618-0.582,0.871c0.529-0.1,0.643-0.57,0.966-0.783c1.896,0.069,3.563,1.461,5.558,0.958
	c-0.034,1.213,0.212,2.463-0.457,3.597c-0.084-0.02-0.167-0.04-0.25-0.055c-0.64,0.499-0.186,1.089-0.142,1.646
	c0.007,0.241-0.081,0.437-0.275,0.582c-0.223,0.07-0.447,0.072-0.673,0.019c-0.715-0.387-0.739-1.052-0.705-1.743
	c-0.151,0.777,0.147,1.597-0.215,2.36c-0.126,0.218-0.3,0.385-0.514,0.515c-1.808,0.808-3.731,0.471-5.611,0.583
	c-4.334-0.685-8.375-2.31-12.425-3.901c-0.174-0.333-0.349-0.666-0.523-1c0.083-0.437,0.323-0.964-0.503-0.882
	c-1.773-2.799-3.547-5.599-5.757-9.087c3.631,1.095,6.532,1.97,9.433,2.846c-0.235,0.282-0.56,0.27-0.891,0.258
	c0.006,0.213,0.087,0.026,0.121,0.027C52.672,31.915,54,32.751,55.492,32.572z"/>
<path fill-rule="evenodd" clip-rule="evenodd" fill="#CBCB65" d="M50.875,66.886c0.312,5.722,0.313,5.845-5.273,5.913
	c-5.201,0.062-10.429-0.41-15.232-2.497c-5.501-2.391-9.787-6.091-10.597-12.573c0.833-0.137,1.493,0.305,2.029,0.796
	c4.146,3.808,9.431,5.197,14.559,6.925c0.869,0.311,1.782,0.255,2.682,0.32c0.424,0.027,0.839,0.095,1.25,0.197
	c2.49,0.458,5,0.107,7.497,0.22C48.859,66.236,49.985,66.038,50.875,66.886z"/>
<path fill-rule="evenodd" clip-rule="evenodd" fill="#AFAF55" d="M66.55,53.789c-2.612-1.218-5.546-1.574-8.07-3.024
	c-1.325-1.057-2.897-1.373-4.53-1.508c-2.629-0.583-1.036-2.785-1.596-4.161c-0.014-0.13,0.007-0.255,0.062-0.374
	c0.265-0.929,0.714-1.69,1.754-1.91c4.779,0.734,9.306,2.321,13.766,4.126c0.314,0.127,0.46,0.466,0.587,0.777
	c0.134,1.727,0.316,3.457-0.419,5.112C67.458,52.94,67.879,54.779,66.55,53.789z"/>
<path fill-rule="evenodd" clip-rule="evenodd" fill="#AFAE55" d="M57.481,53.276c3.579,0.199,6.62,2.172,9.998,3.033
	c-0.389,7.806-1.031,8.236-7.841,5.067c-2.104-0.979-4.367-1.634-6.293-2.99C52.724,54.638,52.932,54.382,57.481,53.276z"/>
<path fill-rule="evenodd" clip-rule="evenodd" fill="#FDFCFA" d="M51.843,55.695c-0.369,1.032-1.18,1.116-2.157,1.245
	c-5.674,0.747-11.272-0.097-16.887-0.658c-1.603,0.771-2.733-0.244-3.921-1.04c-2.532-1.185-5.236-1.992-7.633-3.474
	c-0.93-0.578-2.061-0.909-2.524-2.06c-0.514-1.104-0.74-2.254-0.548-3.47c1.939,0.06,2.64,1.619,3.547,2.928
	c5.892,4.141,12.496,5.806,19.625,5.646c2.354-0.447,4.711-0.419,7.067-0.02c1.129,0.309,2.444-0.45,3.443,0.601l0.18,0.157
	L51.843,55.695z"/>
<path fill-rule="evenodd" clip-rule="evenodd" fill="#FDFCFA" d="M39.845,66.383c-0.3-0.013-0.601-0.026-0.901-0.04
	c-0.811-0.522-1.822,0.099-2.625-0.461c-6.188-1.352-11.811-3.851-16.545-8.154c-0.509-1.093-0.749-2.23-0.566-3.437
	c4.884,4.702,10.446,8.088,17.228,9.378c4.808,0.915,9.637,0.705,14.469,0.78c-0.013,0.628-0.027,1.257-0.04,1.885
	C47.192,66.837,43.52,66.759,39.845,66.383z"/>
<path fill-rule="evenodd" clip-rule="evenodd" fill="#CCCB65" d="M68.524,47.714c-4.783-1.742-9.609-3.346-14.569-4.516
	c-1.402,0.835-2.146-0.357-3.067-0.997c-0.848-0.625-1.51-1.364-1.553-2.489c2.229-0.09,4.188,0.932,6.248,1.531
	c2.153,0.627,4.291,1.304,6.434,1.959c2.062,0.16,4.042,0.682,5.989,1.354c0.839,0.29,1.585,0.631,1.14,1.753
	C69.239,46.912,68.781,47.269,68.524,47.714z"/>
<path fill-rule="evenodd" clip-rule="evenodd" fill="#AEAF56" d="M57.481,53.276c0.04,0.288,0.338,0.875,0.014,0.818
	c-3.558-0.623-3.873,1.799-4.15,4.292c-0.329-0.138-0.657-0.275-0.984-0.413c-0.203-1.388,0.564-2.869-0.405-4.183
	c-0.267-2.052,0.269-3.073,2.498-1.967C55.456,52.321,56.472,52.792,57.481,53.276z"/>
<path fill-rule="evenodd" clip-rule="evenodd" fill="#AEAF54" d="M69.146,46.31c-0.317-1.572-1.82-1.097-2.765-1.536
	c-1.397-0.648-2.904-1.06-4.364-1.571c1.848-0.168,3.696-0.337,5.544-0.506c0.19-1.376-0.441-2.886,0.579-4.267
	c0.919,1.041-0.131,2.441,0.939,3.262c0.671,0.923-0.089,2.034,0.389,2.982C69.555,45.258,69.577,45.829,69.146,46.31z"/>
<path fill-rule="evenodd" clip-rule="evenodd" fill="#C9CB60" d="M21.719,49.168c-1.559-0.521-1.975-2.423-3.547-2.928
	c-0.011-0.341-0.021-0.683-0.032-1.024C19.753,46.152,22.352,46.197,21.719,49.168z"/>
<path fill-rule="evenodd" clip-rule="evenodd" fill="#CBCD68" d="M39.845,66.383c3.673-0.016,7.346-0.032,11.019-0.048
	c0.004,0.183,0.008,0.367,0.012,0.55c-2.901,0.001-5.802,0.019-8.702-0.01C41.378,66.868,40.492,67.146,39.845,66.383z"/>
<path fill-rule="evenodd" clip-rule="evenodd" fill="#AFAE55" d="M51.955,53.79c1.722,1.24,0.992,2.718,0.405,4.183
	c-0.297-0.033-0.593-0.066-0.888-0.099c0.262-0.702,0.632-1.387,0.371-2.179c-0.029-0.101-0.025-0.201,0.01-0.3
	C51.888,54.86,51.921,54.325,51.955,53.79z"/>
<path fill-rule="evenodd" clip-rule="evenodd" fill="#CBCA65" d="M18.72,49.709c0.899,0.615,2.027,0.951,2.523,2.06
	c-0.519,0-1.038,0-1.558-0.001c-0.332,0.05-0.278,0.46-0.538,0.577C18.548,51.541,18.72,50.611,18.72,49.709z"/>
<path fill-rule="evenodd" clip-rule="evenodd" fill="#FAF6F4" d="M70.656,34.312c-0.011-1.419-0.023-2.838-0.033-4.256
	C71.186,31.47,72.3,32.88,70.656,34.312z"/>
<path fill-rule="evenodd" clip-rule="evenodd" fill="#BBBC5C" d="M66.55,53.789c1.426-0.087,0.752-1.4,1.192-2.073
	c0.463,0.271,0.26,0.74,0.362,1.111c-0.066,0.862,0.109,1.773-0.507,2.525C67.635,54.572,66.908,54.303,66.55,53.789z"/>
<path fill-rule="evenodd" clip-rule="evenodd" fill="#F9F7F6" d="M55.105,20.973c-1.122,0.262-2.247,0.546-3.173-0.48
	C53.037,20.341,54.103,20.446,55.105,20.973z"/>
<path fill-rule="evenodd" clip-rule="evenodd" fill="#BCBA57" d="M69.467,44.674c-0.733-0.916-0.259-1.988-0.389-2.982
	c0.162,0.001,0.325,0.003,0.487,0.007c0.307,0.355,0.269,0.727,0.051,1.106C69.567,43.429,69.517,44.052,69.467,44.674z"/>
<path fill-rule="evenodd" clip-rule="evenodd" fill="#C0B95A" d="M69.617,42.806c-0.018-0.369-0.034-0.738-0.051-1.107
	c0.001-0.173,0.003-0.346,0.005-0.519c-0.192-0.618-0.694-1.333,0.48-1.519c0,0,0.093,0.045,0.094,0.045
	C70.072,40.757,70.284,41.857,69.617,42.806z"/>
<path fill-rule="evenodd" clip-rule="evenodd" fill="#FAF6F4" d="M70.635,30.073c-0.723-0.411-1.674-0.688-1.091-1.864
	C70.286,28.608,70.581,29.27,70.635,30.073z"/>
<path fill-rule="evenodd" clip-rule="evenodd" fill="#F9F7F6" d="M58.907,22.061c-0.878,0.575-1.542,0.442-1.937-0.584
	C57.709,21.362,58.417,21.35,58.907,22.061z"/>
<path fill-rule="evenodd" clip-rule="evenodd" fill="#CDD46C" d="M19.147,52.345c0.183-0.189-0.247-0.949,0.539-0.577
	c-0.22,0.482,0.851,1.354-0.456,1.506C19.203,52.965,19.175,52.655,19.147,52.345z"/>
<path fill-rule="evenodd" clip-rule="evenodd" fill="#FCFCF8" d="M19.615,38.78c-0.638-0.399-1.169-0.9-1.516-1.578
	c1.021-0.352-0.239-1.417,0.932-2.054C18.305,36.694,21.859,36.935,19.615,38.78z"/>
<path fill-rule="evenodd" clip-rule="evenodd" fill="#A2A73F" d="M55.492,32.572c-1.608,1.068-2.949-0.277-4.401-0.535
	c-0.484-0.085-0.01-0.323,0.151-0.369c0.236-0.067,0.494-0.057,0.743-0.08C53.197,31.762,54.395,31.99,55.492,32.572z"/>
<path fill-rule="evenodd" clip-rule="evenodd" fill="#A8AB56" d="M50.888,42.202c1.248-0.362,1.831,1.323,3.067,0.997
	c-0.513,0.508-1.026,1.016-1.539,1.522C51.907,43.881,51.397,43.042,50.888,42.202z"/>
<path fill-rule="evenodd" clip-rule="evenodd" fill="#FCFCF7" d="M51.048,28.646c-0.753,1.221-1.721,0.795-2.675,0.606
	C49.264,29.05,50.156,28.849,51.048,28.646z"/>
<path fill-rule="evenodd" clip-rule="evenodd" fill="#AFAE5C" d="M65.043,35.153c0.112,1.458-0.744,1.635-1.974,1.419
	c0.213-0.864,0.979-1.108,1.589-1.507C64.805,35.02,64.933,35.048,65.043,35.153z"/>
<path fill-rule="evenodd" clip-rule="evenodd" fill="#ACAD52" d="M48.308,37.831c0.342-0.647,0.903-0.41,1.138-0.068
	c0.422,0.612-0.281,0.716-0.634,0.951C48.644,38.419,48.476,38.125,48.308,37.831z"/>
<path fill-rule="evenodd" clip-rule="evenodd" fill="#C5C853" d="M48.41,54.794c-2.355,0.006-4.711,0.013-7.067,0.02
	c3.074-1.095,6.348-0.159,9.456-1.047C50.184,54.667,48.967,53.865,48.41,54.794z"/>
<path fill-rule="evenodd" clip-rule="evenodd" fill="#ADAE53" d="M53.951,49.256c1.987-0.812,3.48,0.486,5.111,1.196
	c-0.033,0.067-0.053,0.173-0.104,0.193c-0.152,0.058-0.316,0.081-0.477,0.118C56.935,50.37,55.345,50.104,53.951,49.256z"/>
<path fill-rule="evenodd" clip-rule="evenodd" fill="#C9CC61" d="M28.877,55.243c1.404-0.018,2.434,1.373,3.921,1.04
	c-1.678,1.296-3.234-0.281-4.861-0.23c-0.067,0.002-0.145-0.356-0.217-0.547C28.105,55.418,28.491,55.331,28.877,55.243z"/>
<path fill-rule="evenodd" clip-rule="evenodd" fill="#CDCA68" d="M45.208,58.188c1.725-0.537,2.951-0.38,4.179-0.163
	C48.174,58.295,46.987,59.314,45.208,58.188z"/>
<path fill-rule="evenodd" clip-rule="evenodd" fill="#ABB056" d="M70.051,39.662c-0.554,0.382-0.458,0.968-0.48,1.519
	c-0.708-0.557-0.534-1.315-0.4-2.02c0.066-0.35,0.289-0.877,0.784-0.437C70.128,38.877,70.027,39.34,70.051,39.662z"/>
<path fill-rule="evenodd" clip-rule="evenodd" fill="#CAC86C" d="M38.877,67.498c0.947,0,1.894,0,2.841,0
	c0.01,0.07,0.021,0.141,0.031,0.211c-0.921,0-1.843,0-2.765,0C38.948,67.639,38.913,67.568,38.877,67.498z"/>
<path fill-rule="evenodd" clip-rule="evenodd" fill="#CBCD68" d="M36.318,65.883c0.898,0.017,1.825-0.124,2.625,0.461
	C38.053,66.278,37.072,66.724,36.318,65.883z"/>
<path fill-rule="evenodd" clip-rule="evenodd" fill="#ADAF5A" d="M67.561,42.697c0.661,0.082,1.137,0.333,0.826,1.102
	c-0.066,0.164-0.43,0.358-0.586,0.31C66.849,43.815,67.78,43.153,67.561,42.697L67.561,42.697z"/>
</svg>
