<?xml version="1.0" encoding="utf-8"?>
<!-- Generator: Adobe Illustrator 16.0.0, SVG Export Plug-In . SVG Version: 6.00 Build 0)  -->
<!DOCTYPE svg PUBLIC "-//W3C//DTD SVG 1.1//EN" "http://www.w3.org/Graphics/SVG/1.1/DTD/svg11.dtd">
<svg version="1.1" id="Layer_1" xmlns="http://www.w3.org/2000/svg" xmlns:xlink="http://www.w3.org/1999/xlink" x="0px" y="0px"
	 width="512px" height="512px" viewBox="0 0 512 512" enable-background="new 0 0 512 512" xml:space="preserve">
<g>
	<g>
		<path fill="#C7C7C9" d="M169.5,379.029c-6.143,0-12.285-2.344-16.971-7.029l-112-112c-9.373-9.373-9.373-24.568,0-33.941l112-112
			c9.373-9.371,24.568-9.371,33.941,0c9.371,9.373,9.371,24.568,0,33.941l-95.029,95.029l95.029,95.029
			c9.371,9.373,9.371,24.568,0,33.941C181.783,376.686,175.643,379.029,169.5,379.029z"/>
		<path fill="#C7C7C9" d="M345.5,379.029c6.143,0,12.285-2.344,16.971-7.029l112-112c9.373-9.373,9.373-24.568,0-33.941l-112-112
			c-9.373-9.371-24.567-9.371-33.94,0c-9.371,9.373-9.371,24.568,0,33.941l95.028,95.029l-95.028,95.029
			c-9.371,9.373-9.371,24.568,0,33.941C333.217,376.686,339.357,379.029,345.5,379.029z"/>
	</g>
	<g>
		<path fill="#2E3192" d="M163.5,351.029c-6.143,0-12.285-2.344-16.971-7.029l-112-112c-9.373-9.373-9.373-24.568,0-33.941l112-112
			c9.373-9.371,24.568-9.371,33.941,0c9.371,9.373,9.371,24.568,0,33.941l-95.029,95.029l95.029,95.029
			c9.371,9.373,9.371,24.568,0,33.941C175.783,348.686,169.643,351.029,163.5,351.029z"/>
		<path fill="#2E3192" d="M339.5,351.029c6.143,0,12.285-2.344,16.971-7.029l112-112c9.373-9.373,9.373-24.568,0-33.941l-112-112
			c-9.373-9.371-24.567-9.371-33.94,0c-9.371,9.373-9.371,24.568,0,33.941l95.028,95.029l-95.028,95.029
			c-9.371,9.373-9.371,24.568,0,33.941C327.217,348.686,333.357,351.029,339.5,351.029z"/>
	</g>
</g>
<g>
	<path d="M151.236,225.514v-14.955c0-2.94-1.344-3.949-3.486-3.949c-2.143,0-4.243,1.764-5.251,3.571v15.333h-2.101v-28.019h2.101
		v10.712c1.218-1.806,3.528-3.486,5.881-3.486c3.319,0,4.999,1.596,4.999,5.419v15.375H151.236z"/>
	<path d="M162.532,215.348c0-5.881,2.94-10.627,7.855-10.627c5.293,0,7.729,4.873,7.729,10.669v0.672H164.8
		c0.084,4.621,2.353,8.149,6.217,8.149c1.932,0,3.739-0.966,5.041-2.772l1.26,1.26c-1.596,2.058-3.696,3.318-6.385,3.318
		C165.641,226.018,162.532,221.523,162.532,215.348z M170.345,206.526c-3.907,0-5.503,4.495-5.545,7.855h11.132
		C175.932,210.895,174.378,206.526,170.345,206.526z"/>
	<path d="M187.185,225.514v-28.019h2.101v28.019H187.185z"/>
	<path d="M199.449,225.514v-28.019h2.101v28.019H199.449z"/>
	<path d="M210.746,215.348c0-5.755,2.688-10.627,7.855-10.627c5.167,0,7.855,4.873,7.855,10.627c0,5.755-2.688,10.67-7.855,10.67
		C213.435,226.018,210.746,221.103,210.746,215.348z M224.188,215.348c0-4.369-1.681-8.737-5.587-8.737
		c-3.865,0-5.587,4.369-5.587,8.737c0,4.411,1.722,8.78,5.587,8.78C222.508,224.127,224.188,219.759,224.188,215.348z"/>
	<path d="M263.626,225.514l-4.705-17.349l-4.663,17.349h-2.1l-5.461-20.29h2.268l4.327,17.265l4.621-17.265h2.017l4.62,17.265
		l4.369-17.265h2.269l-5.461,20.29H263.626z"/>
	<path d="M278.113,215.348c0-5.755,2.688-10.627,7.855-10.627s7.855,4.873,7.855,10.627c0,5.755-2.688,10.67-7.855,10.67
		S278.113,221.103,278.113,215.348z M291.556,215.348c0-4.369-1.681-8.737-5.587-8.737c-3.865,0-5.587,4.369-5.587,8.737
		c0,4.411,1.722,8.78,5.587,8.78C289.875,224.127,291.556,219.759,291.556,215.348z"/>
	<path d="M303.018,225.514v-20.29h2.101v3.444c1.386-2.268,3.234-3.864,5.839-3.864v2.31c-0.294-0.042-0.588-0.042-0.924-0.042
		c-1.933,0-4.075,1.807-4.915,3.655v14.787H303.018z"/>
	<path d="M318.894,225.514v-28.019h2.101v28.019H318.894z"/>
	<path d="M342.793,225.514v-3.024c-1.134,2.058-3.234,3.528-5.419,3.528c-4.578,0-7.183-4.327-7.183-10.628
		c0-6.259,2.604-10.669,7.183-10.669c2.143,0,4.201,1.26,5.419,3.612v-10.838h2.143v28.019H342.793z M342.793,220.389v-9.998
		c-0.84-1.933-2.898-3.781-5.04-3.781c-3.655,0-5.293,4.033-5.293,8.779c0,4.747,1.638,8.738,5.293,8.738
		C339.895,224.127,341.953,222.363,342.793,220.389z"/>
	<path d="M368.201,224.085c0-0.966,0.84-1.764,1.807-1.764c1.008,0,1.806,0.798,1.806,1.764c0,1.008-0.798,1.806-1.806,1.806
		C369.041,225.892,368.201,225.094,368.201,224.085z M369.167,218.247l-0.546-20.752h2.772l-0.546,20.752H369.167z"/>
</g>
</svg>
