<?xml version="1.0" encoding="utf-8"?>
<!-- Generator: Adobe Illustrator 16.0.0, SVG Export Plug-In . SVG Version: 6.00 Build 0)  -->
<!DOCTYPE svg PUBLIC "-//W3C//DTD SVG 1.1//EN" "http://www.w3.org/Graphics/SVG/1.1/DTD/svg11.dtd">
<svg version="1.1" id="Layer_1" xmlns="http://www.w3.org/2000/svg" xmlns:xlink="http://www.w3.org/1999/xlink" x="0px" y="0px"
	 width="512px" height="512px" viewBox="0 0 512 512" enable-background="new 0 0 512 512" xml:space="preserve">
<circle fill="#2E398E" cx="207.706" cy="462.5" r="10"/>
<circle fill="#DADADA" cx="304.294" cy="462.5" r="10"/>
<circle fill="#DADADA" cx="255.445" cy="462.5" r="10"/>
<g>
	<path fill="#2E398E" d="M186.755,258.229l-2.8-24.799c67.199-22.399,141.597-105.198,116.798-129.998
		c-21.6-21.6-90.399,68.399-113.999,95.599c-6-4-12-9.2-15.6-14.399c37.6-44,83.599-116.799,138.398-116.799
		c71.198,0,31.2,130.798-78.399,180.397l-1.6,0.4c6.8,5.6,11.6,13.599,12.8,23.599c39.2-12,71.999-38.799,111.599-84.399l2.8-3.199
		c5.601,2.399,12.8,8.8,15.6,14.399c-45.999,53.199-88.398,82.798-132.398,96.398c-1.6,5.201-4,10.4-7.2,16.4l-22,38.398
		c-29.6,51.6-92.799,42.4-92.799,2.4c0-31.199,35.6-54.398,92.398-71.598c6.8-14-8-23.6-22.799-22.4h-0.8h-0.4L186.755,258.229z
		 M174.356,343.027l19.6-33.6c-32.399,12.4-42.399,24.801-42.399,35.6C151.556,356.227,165.156,358.627,174.356,343.027z"/>
</g>
<path fill="#2E398E" stroke="#2E398E" stroke-width="2.5021" stroke-miterlimit="10" d="M403.949,125.056
	c-11.561,18.221-26.86,33.672-38.422,51.893c-1.999,3.152,11.137,13.916,11.691,13.044c11.561-18.221,26.858-33.672,38.422-51.893
	C417.64,134.948,404.504,124.185,403.949,125.056z"/>
</svg>
