<?xml version="1.0" encoding="utf-8"?>
<!-- Generator: Adobe Illustrator 16.0.0, SVG Export Plug-In . SVG Version: 6.00 Build 0)  -->
<!DOCTYPE svg PUBLIC "-//W3C//DTD SVG 1.1//EN" "http://www.w3.org/Graphics/SVG/1.1/DTD/svg11.dtd">
<svg version="1.1" id="Layer_1" xmlns="http://www.w3.org/2000/svg" xmlns:xlink="http://www.w3.org/1999/xlink" x="0px" y="0px"
	 width="512px" height="512px" viewBox="0 0 512 512" enable-background="new 0 0 512 512" xml:space="preserve">
<g>
	<path fill="#C7C7C9" d="M362.2,350.8C373.5,354.7,351,346.9,362.2,350.8L362.2,350.8z"/>
	<path fill="#C7C7C9" d="M362.2,350.8c-13.5-4.7-28.101-5-41.601-9.7c-4.1-1.399-12.199-3.1-13.899-7.8
		c-1.601-4.6-1.601-10-1.9-14.8c-0.2-3.8-0.3-7.6-0.3-11.4c0-2.5,6.4-7.8,7.8-10.1c5.4-9,5.9-21.1,6.9-31.3
		c8.7,2.399,9.8-13.7,11.3-18.6c1.1-3.4,7.8-26.8-2.6-23.6c2.5-4.4,3.5-9.8,4.199-14.7c2-12.8,2.801-26.8-1.1-39.3
		c-8.1-26-33-40.6-59.3-41.4c-26.7-0.9-53.5,11.9-63.5,37.8c-4.8,12.6-4.4,26.3-2.8,39.5c0.7,6,1.7,12.7,4.7,18.1
		c-9.7-2.9-4.5,17.7-3.4,21.3c1.6,5.1,3,23.4,12.1,20.9c0.8,8.1,1.7,16.399,3.9,24.3c1.5,5.3,4.6,9.8,8.2,13.9
		c1.8,2,2.7,2.199,2.6,4.8c-0.1,7.8,0.1,16.2-1.9,23.8s-18.7,10.8-25.4,12.2c-18,3.7-34.6,5.399-49.6,16.6
		c-17.5,12.9-26.6,33-26.6,54.7c83.3,0,166.6,0,249.9,0c9.399,0,18.699,0,28.1,0C408,386.5,390.2,360.5,362.2,350.8z"/>
	<path fill="#C7C7C9" d="M156.3,338.5c0.6-0.3,1.2-0.6,1.6-0.8c-0.3,0.1-0.6,0.3-0.8,0.399C156.8,338.2,156.6,338.3,156.3,338.5z"/>
	<path fill="#C7C7C9" d="M156.3,338.5c-3.4,1.7-7.5,3.8,0.8-0.4c3-1.5,2.4-1.199,0.8-0.399c6.8-3.2,14.1-4,21.4-4.7
		c2.8-0.3,4.1-2.2,2-4.9c-4-5.1-17.8-6.1-23.6-8.399c-3.6-1.4-4.6-2.7-4.9-6.7c-0.1-1.8-1.1-9.8,0.3-11.1c1-1,7.3-0.601,8.7-0.801
		c5.7-0.699,11.5-1.899,16.9-4c2.3-0.899,4.5-2,6.5-3.399c2.4-1.8-1.8-6.2-2.9-8.601c-3.4-7.5-4.9-15.699-5.4-23.899
		c-1-16.1,1.5-32.3-1.5-48.3c-4.5-24.5-23.4-36.8-47.5-36.8c-14.9,0-29.6,5.1-37.9,18.1c-9.2,14.3-8.7,32.1-8.2,48.4
		c0.3,9.3,0.7,18.7-0.6,28c-0.6,4-1.5,7.9-2.9,11.7c-1.1,2.9-6.7,10.101-4.5,11.601c8.3,5.899,22.3,7.899,32.3,7.1
		c0.3,4.9,1.2,11.2-0.6,15.8c-2.8,7.2-23.7,9.101-30,11.2C58,333.8,45,348,45,368c18.3,0,36.5,0,54.8,0c8.2,0,16.4,0,24.7,0
		c1.3,0,6.3-9.3,7.7-10.8C139,349.7,147.3,343.2,156.3,338.5z"/>
	<path fill="#C7C7C9" d="M462.3,327.9c-8.1-2.601-23.7-3.4-29.5-10.4c-2.899-3.5-1.3-12.4-1-16.6c4.4,0.399,9.2-0.301,13.7-0.9
		c4.1-0.6,8.1-1.4,12-2.8c1.8-0.7,3.6-1.4,5.3-2.4c3.9-2.3,2.101-2.7,0.101-6.1c-10.9-18.3-6-41.5-6.5-61.6
		c-0.4-16.7-4.801-35-20-44.4c-13.7-8.5-34-8.8-48.7-2.8c-42.4,17-17.4,73.2-31.9,105.4c-2.5,5.4-6.1,7.3,0.2,10.5
		c3.5,1.8,7.3,3,11.1,3.9c5.801,1.399,11.801,2.2,17.801,2.399c1,0,0.3,12.601,0,13.9c-1.101,4.9-11.801,6.3-15.801,7.4
		C365,324.5,358.2,324.8,356.2,329.1c-3,6.4,9.899,4.801,13.1,5.4c10.3,1.9,19.4,7.6,27.4,14.1c6,4.9,14.1,11.5,16.3,19.5
		c26.7,0,53.5,0,80.2,0C493,348,479.9,333.7,462.3,327.9z"/>
</g>
<g>
	<path fill="#2E3192" d="M349.101,343.899C360.4,347.8,337.9,340,349.101,343.899L349.101,343.899z"/>
	<path fill="#2E3192" d="M349.101,343.899c-13.5-4.7-28.101-5-41.601-9.7c-4.1-1.399-12.199-3.1-13.899-7.8
		c-1.601-4.6-1.601-10-1.9-14.8c-0.2-3.8-0.3-7.6-0.3-11.4c0-2.5,6.4-7.8,7.8-10.1c5.4-9,5.9-21.1,6.9-31.3
		c8.7,2.399,9.8-13.7,11.3-18.6c1.1-3.4,7.8-26.8-2.6-23.6c2.5-4.4,3.5-9.8,4.199-14.7c2-12.8,2.801-26.8-1.1-39.3
		c-8.1-26-33-40.6-59.3-41.4c-26.7-0.9-53.5,11.9-63.5,37.8c-4.8,12.6-4.4,26.3-2.8,39.5c0.7,6,1.7,12.7,4.7,18.1
		c-9.7-2.9-4.5,17.7-3.4,21.3c1.6,5.1,3,23.4,12.1,20.9c0.8,8.1,1.7,16.399,3.9,24.3c1.5,5.3,4.6,9.8,8.2,13.9
		c1.8,2,2.7,2.199,2.6,4.8c-0.1,7.8,0.1,16.2-1.9,23.8s-18.7,10.8-25.4,12.2c-18,3.7-34.6,5.399-49.6,16.6
		c-17.5,12.9-26.6,33-26.6,54.7c83.3,0,166.6,0,249.9,0c9.399,0,18.699,0,28.1,0C394.9,379.6,377.101,353.6,349.101,343.899z"/>
	<path fill="#2E3192" d="M143.2,331.6c0.6-0.3,1.2-0.6,1.6-0.8c-0.3,0.1-0.6,0.3-0.8,0.399C143.7,331.3,143.5,331.399,143.2,331.6z"
		/>
	<path fill="#2E3192" d="M143.2,331.6c-3.4,1.7-7.5,3.8,0.8-0.4c3-1.5,2.4-1.199,0.8-0.399c6.8-3.2,14.1-4,21.4-4.7
		c2.8-0.3,4.1-2.2,2-4.9c-4-5.1-17.8-6.1-23.6-8.399c-3.6-1.4-4.6-2.7-4.9-6.7c-0.1-1.8-1.1-9.8,0.3-11.1c1-1,7.3-0.601,8.7-0.801
		c5.7-0.699,11.5-1.899,16.9-4c2.3-0.899,4.5-2,6.5-3.399c2.4-1.8-1.8-6.2-2.9-8.601c-3.4-7.5-4.9-15.699-5.4-23.899
		c-1-16.1,1.5-32.3-1.5-48.3c-4.5-24.5-23.4-36.8-47.5-36.8c-14.9,0-29.6,5.1-37.9,18.1c-9.2,14.3-8.7,32.1-8.2,48.4
		c0.3,9.3,0.7,18.7-0.6,28c-0.6,4-1.5,7.9-2.9,11.7c-1.1,2.9-6.7,10.101-4.5,11.601c8.3,5.899,22.3,7.899,32.3,7.1
		c0.3,4.9,1.2,11.2-0.6,15.8c-2.8,7.2-23.7,9.101-30,11.2c-17.5,5.8-30.5,20-30.5,40c18.3,0,36.5,0,54.8,0c8.2,0,16.4,0,24.7,0
		c1.3,0,6.3-9.3,7.7-10.8C125.9,342.8,134.2,336.3,143.2,331.6z"/>
	<path fill="#2E3192" d="M449.2,321c-8.1-2.601-23.7-3.4-29.5-10.4c-2.899-3.5-1.3-12.4-1-16.6c4.4,0.399,9.2-0.301,13.7-0.9
		c4.1-0.6,8.1-1.4,12-2.8c1.8-0.7,3.6-1.4,5.3-2.4c3.9-2.3,2.101-2.7,0.101-6.1c-10.9-18.3-6-41.5-6.5-61.6
		c-0.4-16.7-4.801-35-20-44.4c-13.7-8.5-34-8.8-48.7-2.8c-42.4,17-17.4,73.2-31.9,105.4c-2.5,5.4-6.1,7.3,0.2,10.5
		c3.5,1.8,7.3,3,11.1,3.9c5.801,1.399,11.801,2.2,17.801,2.399c1,0,0.3,12.601,0,13.9C370.7,314,360,315.399,356,316.5
		c-4.1,1.1-10.899,1.399-12.899,5.699c-3,6.4,9.899,4.801,13.1,5.4c10.3,1.9,19.4,7.6,27.4,14.1c6,4.9,14.1,11.5,16.3,19.5
		c26.7,0,53.5,0,80.2,0C479.9,341.1,466.801,326.8,449.2,321z"/>
</g>
<path fill="#E65A71" d="M54.5,144.298c5.349,0,10.439-1.055,15.048-2.943c0.111-0.056,0.204-0.092,0.314-0.129
	c0.019,0,0.037,0,0.037-0.019c0.648-0.241,1.351-0.37,2.073-0.37c0.796,0,1.555,0.148,2.24,0.444L89.761,147l-4.09-16.362
	c0-0.981,0.277-1.907,0.722-2.703l0,0c0.148-0.241,0.296-0.481,0.463-0.685c3.868-5.793,6.108-12.679,6.108-20.064
	C93,86.64,75.768,70,54.5,70S16,86.64,16,107.149C16,127.676,33.232,144.298,54.5,144.298z M72.269,102.577
	c3.276,0,5.923,2.646,5.923,5.923s-2.647,5.923-5.923,5.923c-3.276,0-5.923-2.646-5.923-5.923S68.993,102.577,72.269,102.577z
	 M54.5,102.577c3.276,0,5.923,2.646,5.923,5.923s-2.646,5.923-5.923,5.923s-5.923-2.646-5.923-5.923S51.224,102.577,54.5,102.577z
	 M36.731,102.577c3.276,0,5.923,2.646,5.923,5.923s-2.647,5.923-5.923,5.923c-3.276,0-5.923-2.646-5.923-5.923
	S33.455,102.577,36.731,102.577z"/>
<path fill="#2461A0" d="M211.032,111.738c3.488,0,6.806-0.688,9.812-1.919c0.072-0.036,0.132-0.06,0.205-0.084
	c0.012,0,0.024,0,0.024-0.012c0.422-0.157,0.881-0.241,1.352-0.241c0.519,0,1.013,0.097,1.46,0.289l10.138,3.729l-2.667-10.668
	c0-0.64,0.181-1.243,0.47-1.762l0,0c0.097-0.157,0.193-0.313,0.302-0.446c2.522-3.777,3.983-8.267,3.983-13.082
	c0.024-13.396-11.212-24.247-25.079-24.247c-13.867,0-25.103,10.85-25.103,24.222C185.929,100.9,197.165,111.738,211.032,111.738z
	 M222.618,84.536c2.137,0,3.862,1.726,3.862,3.862c0,2.136-1.726,3.861-3.862,3.861c-2.136,0-3.862-1.726-3.862-3.861
	C218.756,86.261,220.482,84.536,222.618,84.536z M211.032,84.536c2.136,0,3.861,1.726,3.861,3.862c0,2.136-1.726,3.861-3.861,3.861
	c-2.136,0-3.862-1.726-3.862-3.861C207.17,86.261,208.896,84.536,211.032,84.536z M199.446,84.536c2.136,0,3.862,1.726,3.862,3.862
	c0,2.136-1.726,3.861-3.862,3.861c-2.137,0-3.862-1.726-3.862-3.861C195.584,86.261,197.31,84.536,199.446,84.536z"/>
<path fill="#1A436D" d="M448.225,88.205c0-20.509-17.232-37.149-38.5-37.149s-38.5,16.64-38.463,37.186
	c0,7.385,2.24,14.271,6.107,20.064c0.167,0.204,0.315,0.444,0.463,0.685l0,0c0.445,0.796,0.723,1.721,0.723,2.703l-4.091,16.362
	l15.548-5.72c0.686-0.296,1.443-0.444,2.24-0.444c0.722,0,1.425,0.129,2.072,0.37c0,0.019,0.02,0.019,0.037,0.019
	c0.111,0.037,0.203,0.074,0.314,0.129c4.609,1.888,9.699,2.943,15.049,2.943C430.992,125.354,448.225,108.731,448.225,88.205z
	 M397.879,89.556c0,3.276-2.647,5.923-5.924,5.923c-3.275,0-5.923-2.646-5.923-5.923s2.647-5.923,5.923-5.923
	C395.231,83.633,397.879,86.279,397.879,89.556z M415.647,89.556c0,3.276-2.646,5.923-5.923,5.923s-5.923-2.646-5.923-5.923
	s2.646-5.923,5.923-5.923S415.647,86.279,415.647,89.556z M433.417,89.556c0,3.276-2.647,5.923-5.923,5.923
	c-3.276,0-5.924-2.646-5.924-5.923s2.647-5.923,5.924-5.923C430.77,83.633,433.417,86.279,433.417,89.556z"/>
</svg>
