<?xml version="1.0" encoding="utf-8"?>
<!-- Generator: Adobe Illustrator 16.0.0, SVG Export Plug-In . SVG Version: 6.00 Build 0)  -->
<!DOCTYPE svg PUBLIC "-//W3C//DTD SVG 1.1//EN" "http://www.w3.org/Graphics/SVG/1.1/DTD/svg11.dtd">
<svg version="1.1" id="Layer_1" xmlns="http://www.w3.org/2000/svg" xmlns:xlink="http://www.w3.org/1999/xlink" x="0px" y="0px"
	 width="85.631px" height="86.566px" viewBox="0 0 85.631 86.566" enable-background="new 0 0 85.631 86.566" xml:space="preserve">
<linearGradient id="SVGID_1_" gradientUnits="userSpaceOnUse" x1="-472.021" y1="-522.4414" x2="-472.021" y2="-522.4414" gradientTransform="matrix(1 0 0 1 1054.4297 817.1758)">
	<stop  offset="0" style="stop-color:#FFAA2A"/>
	<stop  offset="1" style="stop-color:#FFC06C"/>
</linearGradient>
<path fill="url(#SVGID_1_)" d="M582.409,294.734"/>
<linearGradient id="SVGID_2_" gradientUnits="userSpaceOnUse" x1="-169.2349" y1="-818.9199" x2="-169.2349" y2="-818.9199" gradientTransform="matrix(1 0 0 1 1054.4297 817.1758)">
	<stop  offset="0" style="stop-color:#FFAA2A"/>
	<stop  offset="1" style="stop-color:#FFC06C"/>
</linearGradient>
<path fill="url(#SVGID_2_)" d="M885.195-1.744"/>
<path fill="#AFAFBC" d="M39.247,9.278c-0.027-0.02-0.061-0.034-0.106-0.041c-0.108-0.016-0.215,0.003-0.323,0.003
	c-0.41,0-0.82,0-1.229,0c-0.603,0-1.206,0-1.809,0c-0.731,0-1.462,0-2.192,0c-0.794,0-1.587,0-2.381,0c-0.791,0-1.581,0-2.371,0
	c-0.723,0-1.445,0-2.167,0c-0.589,0-1.178,0-1.766,0c-0.214,0-0.429,0-0.643,0c-0.202,0-0.475-0.04-0.666,0.021
	c-0.08,0.025-0.119,0.071-0.16,0.141c-0.113,0.187-0.083,0.435-0.083,0.639c0,0.17,0,0.339,0,0.509c0,0.407,0,0.813,0,1.22
	c0,0.826,0,1.652,0,2.478c0,0.359,0,0.718,0,1.075c0-0.006-0.001-0.016,0-0.021c-0.02,0.066-0.039,0.132-0.06,0.199
	c-0.058,0.192-0.115,0.385-0.172,0.578c-0.092,0.31-0.184,0.62-0.277,0.929c-0.124,0.418-0.249,0.836-0.373,1.254
	c-0.155,0.517-0.308,1.033-0.462,1.55c-0.18,0.606-0.361,1.213-0.541,1.819c-0.205,0.687-0.41,1.373-0.615,2.061
	c-0.227,0.758-0.452,1.517-0.677,2.274c-0.244,0.82-0.488,1.64-0.733,2.461c-0.26,0.873-0.521,1.747-0.78,2.62
	c-0.273,0.917-0.546,1.834-0.819,2.751c-0.284,0.952-0.567,1.904-0.851,2.854c-0.291,0.978-0.583,1.955-0.873,2.931
	c-0.296,0.993-0.591,1.987-0.888,2.98c-0.297,1.001-0.596,2.001-0.894,3.001c-0.297,0.999-0.595,1.997-0.892,2.995
	c-0.294,0.987-0.588,1.974-0.882,2.96c-0.287,0.966-0.575,1.933-0.863,2.9c-0.279,0.936-0.557,1.873-0.838,2.811
	c-0.267,0.897-0.534,1.796-0.802,2.694c-0.252,0.85-0.506,1.699-0.76,2.55c-0.236,0.794-0.471,1.585-0.708,2.379
	c-0.216,0.727-0.432,1.453-0.648,2.18c-0.194,0.65-0.388,1.302-0.582,1.953c-0.168,0.566-0.337,1.132-0.505,1.698
	c-0.141,0.473-0.281,0.944-0.423,1.417c-0.11,0.37-0.22,0.739-0.329,1.107c-0.053,0.175-0.117,0.349-0.124,0.534
	C5.979,73.855,5.957,74,5.985,74.111c0.086,0.348,0.755,0.334,1.107,0.334c0.417,0,0.833,0,1.25,0c1.044,0,2.089,0,3.134,0
	c1.088,0,2.177,0,3.266,0c0.048,0,0.095,0,0.143,0c0.478,0,0.955,0,1.433,0c0.289,0,0.687,0.021,0.972-0.036
	c1.184-0.237,1.328-1.517,1.622-2.427c0.284-0.879,0.485-1.784,0.728-2.677c0.28-1.033,0.562-2.066,0.844-3.101
	c0.282-1.04,0.566-2.079,0.848-3.118c0.248-0.91,0.495-1.82,0.742-2.73c0.176-0.646,0.352-1.291,0.526-1.936
	c0.067-0.246,0.134-0.491,0.2-0.736h17.959c0.069,0.229,0.14,0.46,0.208,0.69c0.183,0.608,0.366,1.217,0.549,1.826
	c0.259,0.864,0.52,1.729,0.779,2.594c0.301,0.997,0.601,1.995,0.9,2.993c0.303,1.009,0.607,2.018,0.91,3.026
	c0.271,0.898,0.54,1.795,0.811,2.693c0.2,0.665,0.399,1.328,0.598,1.992c0.041,0.137,0.093,0.273,0.124,0.412
	c0.062,0.29,0.399,0.545,0.684,0.535c0.131-0.004,0.263,0,0.394,0c0.351,0,0.7,0,1.051,0c0.947,0,1.894,0,2.84,0
	c1.077,0,2.155,0,3.23,0c0.972,0,1.942,0,2.912,0c0.003,0,0.007,0,0.011,0c0.153,0,0.306,0,0.46,0c0.14,0,0.288,0.004,0.429,0.008
	c0.157,0.005,0.757-0.144,0.899-0.571c0.036-0.108,0.085-0.218,0.086-0.332c0.001-0.098,0.001-0.181-0.027-0.274
	c-0.033-0.114-0.069-0.228-0.104-0.341c-0.038-0.127-0.076-0.253-0.116-0.382c-0.042-0.14-0.084-0.281-0.126-0.421
	c-0.046-0.153-0.093-0.306-0.139-0.459c-0.05-0.166-0.101-0.331-0.15-0.497c-0.054-0.177-0.107-0.354-0.161-0.532
	c-0.057-0.189-0.114-0.379-0.171-0.568c-0.061-0.2-0.122-0.4-0.182-0.601c-0.064-0.211-0.128-0.422-0.191-0.634
	c-0.067-0.221-0.134-0.443-0.201-0.665c-0.071-0.232-0.139-0.463-0.209-0.696c-0.074-0.241-0.146-0.483-0.219-0.725
	c-0.076-0.25-0.153-0.501-0.228-0.753c-0.078-0.26-0.157-0.52-0.236-0.78c-0.081-0.269-0.162-0.538-0.243-0.806
	c-0.085-0.277-0.168-0.554-0.251-0.831c-0.088-0.285-0.173-0.569-0.258-0.854c-0.091-0.293-0.177-0.586-0.266-0.878
	c-0.09-0.3-0.181-0.599-0.271-0.899c-0.093-0.306-0.185-0.613-0.278-0.919c-0.094-0.313-0.188-0.626-0.284-0.939
	c-0.095-0.318-0.191-0.638-0.288-0.957c-0.098-0.325-0.197-0.649-0.293-0.975c-0.1-0.33-0.2-0.659-0.299-0.99
	c-0.102-0.335-0.203-0.67-0.304-1.005c-0.103-0.339-0.205-0.68-0.308-1.019c-0.104-0.343-0.207-0.688-0.311-1.031
	c-0.105-0.349-0.211-0.696-0.316-1.042c-0.105-0.352-0.211-0.703-0.317-1.055c-0.108-0.354-0.214-0.708-0.321-1.062
	c-0.107-0.356-0.215-0.713-0.323-1.071c-0.108-0.359-0.217-0.719-0.325-1.078c-0.108-0.362-0.218-0.724-0.327-1.084
	c-0.109-0.364-0.22-0.727-0.329-1.09c-0.11-0.364-0.221-0.729-0.33-1.092c-0.11-0.366-0.222-0.731-0.331-1.096
	c-0.11-0.366-0.221-0.731-0.332-1.098c-0.111-0.366-0.222-0.731-0.332-1.099c-0.11-0.365-0.221-0.731-0.332-1.096
	c-0.11-0.366-0.221-0.73-0.331-1.096c-0.11-0.365-0.221-0.729-0.33-1.093c-0.109-0.363-0.22-0.727-0.329-1.089
	c-0.108-0.361-0.219-0.722-0.327-1.083c-0.109-0.36-0.217-0.719-0.325-1.077c-0.108-0.358-0.216-0.714-0.323-1.071
	c-0.106-0.354-0.214-0.708-0.321-1.062c-0.106-0.351-0.212-0.702-0.318-1.053c-0.105-0.347-0.21-0.694-0.315-1.041
	c-0.104-0.345-0.207-0.688-0.311-1.031c-0.104-0.339-0.205-0.679-0.308-1.018c-0.101-0.335-0.202-0.669-0.303-1.004
	c-0.1-0.33-0.199-0.659-0.299-0.989c-0.098-0.324-0.196-0.649-0.294-0.973c-0.096-0.318-0.192-0.637-0.289-0.956
	c-0.094-0.312-0.188-0.624-0.282-0.937c-0.093-0.306-0.186-0.612-0.278-0.918c-0.09-0.3-0.181-0.599-0.271-0.898
	c-0.088-0.292-0.175-0.583-0.264-0.876c-0.086-0.285-0.173-0.568-0.257-0.853c-0.084-0.276-0.167-0.552-0.251-0.828
	c-0.082-0.269-0.162-0.537-0.243-0.804c-0.079-0.26-0.157-0.519-0.235-0.779c-0.076-0.25-0.151-0.5-0.227-0.75
	c-0.073-0.24-0.146-0.481-0.218-0.722c-0.07-0.231-0.14-0.462-0.209-0.694c-0.067-0.221-0.134-0.442-0.2-0.663
	c-0.064-0.211-0.127-0.421-0.19-0.631c-0.061-0.2-0.121-0.399-0.181-0.599c-0.058-0.188-0.114-0.377-0.171-0.566
	c-0.052-0.176-0.106-0.353-0.159-0.529c-0.05-0.164-0.1-0.33-0.149-0.494c-0.045-0.152-0.092-0.305-0.137-0.457
	c-0.043-0.14-0.085-0.279-0.127-0.418c-0.038-0.126-0.076-0.252-0.113-0.379c-0.036-0.113-0.069-0.225-0.104-0.338
	c-0.029-0.099-0.059-0.198-0.091-0.297c-0.024-0.085-0.051-0.17-0.075-0.254c-0.022-0.07-0.042-0.14-0.064-0.211
	C39.347,9.497,39.346,9.35,39.247,9.278z M25.745,46.419l6.161-25.651c0.886,3.719,6.225,25.651,6.225,25.651H25.745z"/>
<path fill="#AFAFBC" d="M78.049,14.659c0,3.553-2.665,6.513-6.907,6.513c-4.045,0-6.71-2.96-6.71-6.513
	c0-3.75,2.763-6.612,6.809-6.612C75.385,8.047,77.951,10.909,78.049,14.659z"/>
<rect x="64.655" y="26.467" fill="#AFAFBC" width="13.078" height="47.979"/>
<path fill="#AFAFBC" d="M78.049,15.188c0,3.552-2.665,6.513-6.907,6.513c-4.045,0-6.71-2.961-6.71-6.513
	c0-3.75,2.763-6.612,6.809-6.612C75.385,8.577,77.951,11.439,78.049,15.188z M39.247,9.831c-0.027-0.02-0.061-0.034-0.106-0.041
	c-0.108-0.016-0.215,0.004-0.323,0.004c-0.41,0-0.82,0-1.229,0c-0.603,0-1.206,0-1.809,0c-0.731,0-1.462,0-2.192,0
	c-0.794,0-1.587,0-2.381,0c-0.791,0-1.581,0-2.371,0c-0.723,0-1.445,0-2.167,0c-0.589,0-1.178,0-1.766,0c-0.214,0-0.429,0-0.643,0
	c-0.202,0-0.475-0.041-0.666,0.021c-0.08,0.025-0.119,0.07-0.16,0.14c-0.113,0.187-0.083,0.436-0.083,0.64c0,0.169,0,0.339,0,0.509
	c0,0.407,0,0.813,0,1.22c0,0.826,0,1.652,0,2.478c0,0.359,0,0.717,0,1.077c0-0.007-0.001-0.017,0-0.022
	c-0.02,0.066-0.039,0.133-0.06,0.199c-0.058,0.193-0.115,0.385-0.172,0.578c-0.092,0.31-0.184,0.621-0.277,0.93
	c-0.124,0.418-0.249,0.835-0.373,1.253c-0.155,0.518-0.308,1.034-0.462,1.551c-0.18,0.606-0.361,1.213-0.541,1.819
	c-0.205,0.687-0.41,1.374-0.615,2.061c-0.227,0.758-0.452,1.517-0.677,2.274c-0.244,0.821-0.488,1.641-0.733,2.461
	c-0.26,0.873-0.521,1.747-0.78,2.62c-0.273,0.917-0.546,1.834-0.819,2.751c-0.284,0.951-0.567,1.903-0.851,2.854
	c-0.291,0.978-0.583,1.955-0.873,2.932c-0.296,0.992-0.591,1.986-0.888,2.979c-0.297,1-0.596,2-0.894,3
	c-0.297,0.999-0.595,1.997-0.892,2.995c-0.294,0.988-0.588,1.975-0.882,2.96c-0.287,0.966-0.575,1.933-0.863,2.899
	c-0.279,0.937-0.557,1.873-0.838,2.812c-0.267,0.897-0.534,1.796-0.802,2.694c-0.252,0.849-0.506,1.699-0.76,2.549
	c-0.236,0.793-0.471,1.586-0.708,2.378c-0.216,0.727-0.432,1.454-0.648,2.18c-0.194,0.651-0.388,1.303-0.582,1.952
	c-0.168,0.567-0.337,1.133-0.505,1.699c-0.141,0.473-0.281,0.944-0.423,1.417c-0.11,0.369-0.22,0.739-0.329,1.108
	c-0.053,0.175-0.117,0.348-0.124,0.534c-0.005,0.112-0.027,0.258,0.001,0.368C6.071,75.015,6.74,75,7.092,75c0.417,0,0.833,0,1.25,0
	c1.044,0,2.089,0,3.134,0c1.088,0,2.177,0,3.266,0c0.048,0,0.095,0,0.143,0c0.478,0,0.955,0,1.433,0
	c0.289,0,0.687,0.021,0.972-0.036c1.184-0.237,1.328-1.517,1.622-2.427c0.284-0.879,0.485-1.784,0.728-2.677
	c0.28-1.034,0.562-2.067,0.844-3.1c0.282-1.041,0.566-2.079,0.848-3.12c0.248-0.91,0.495-1.82,0.742-2.73
	c0.176-0.646,0.352-1.291,0.526-1.937c0.067-0.246,0.134-0.49,0.2-0.736h17.959c0.069,0.23,0.14,0.46,0.208,0.69
	c0.183,0.609,0.366,1.217,0.549,1.826c0.259,0.864,0.52,1.729,0.779,2.594c0.301,0.997,0.601,1.995,0.9,2.993
	c0.303,1.009,0.607,2.017,0.91,3.026c0.271,0.897,0.54,1.795,0.811,2.693c0.2,0.664,0.399,1.327,0.598,1.991
	c0.041,0.136,0.093,0.273,0.124,0.412c0.062,0.291,0.399,0.545,0.684,0.535c0.131-0.004,0.263,0,0.394,0c0.351,0,0.7,0,1.051,0
	c0.947,0,1.894,0,2.84,0c1.077,0,2.155,0,3.23,0c0.972,0,1.942,0,2.912,0c0.003,0,0.007,0,0.011,0c0.153,0,0.306,0,0.46,0
	c0.14,0,0.288,0.004,0.429,0.008c0.157,0.005,0.757-0.143,0.899-0.571c0.036-0.108,0.085-0.218,0.086-0.333
	c0.001-0.098,0.001-0.181-0.027-0.273c-0.033-0.114-0.069-0.228-0.104-0.341c-0.038-0.128-0.076-0.255-0.116-0.382
	c-0.042-0.141-0.084-0.282-0.126-0.422c-0.046-0.154-0.093-0.306-0.139-0.459c-0.05-0.166-0.101-0.331-0.15-0.498
	c-0.054-0.176-0.107-0.354-0.161-0.532c-0.057-0.189-0.114-0.378-0.171-0.567c-0.061-0.201-0.122-0.401-0.182-0.601
	c-0.064-0.211-0.128-0.422-0.191-0.633c-0.067-0.222-0.134-0.444-0.201-0.666c-0.071-0.232-0.139-0.464-0.209-0.695
	c-0.074-0.242-0.146-0.483-0.219-0.726c-0.076-0.25-0.153-0.502-0.228-0.754c-0.078-0.259-0.157-0.519-0.236-0.778
	c-0.081-0.27-0.162-0.538-0.243-0.808c-0.085-0.277-0.168-0.553-0.251-0.831c-0.088-0.286-0.173-0.569-0.258-0.854
	c-0.091-0.292-0.177-0.585-0.266-0.878c-0.09-0.3-0.181-0.599-0.271-0.899c-0.093-0.305-0.185-0.613-0.278-0.919
	c-0.094-0.313-0.188-0.626-0.284-0.939c-0.095-0.319-0.191-0.638-0.288-0.956c-0.098-0.325-0.197-0.65-0.293-0.975
	c-0.1-0.331-0.2-0.661-0.299-0.991c-0.102-0.335-0.203-0.67-0.304-1.005c-0.103-0.339-0.205-0.68-0.308-1.019
	c-0.104-0.344-0.207-0.688-0.311-1.032c-0.105-0.347-0.211-0.695-0.316-1.042c-0.105-0.352-0.211-0.702-0.317-1.053
	c-0.108-0.354-0.214-0.708-0.321-1.062c-0.107-0.357-0.215-0.714-0.323-1.072c-0.108-0.358-0.217-0.718-0.325-1.078
	c-0.108-0.361-0.218-0.723-0.327-1.084c-0.109-0.364-0.22-0.727-0.329-1.09c-0.11-0.365-0.221-0.729-0.33-1.093
	c-0.11-0.365-0.222-0.73-0.331-1.096c-0.11-0.367-0.221-0.731-0.332-1.098c-0.111-0.366-0.222-0.731-0.332-1.098
	c-0.11-0.366-0.221-0.731-0.332-1.096c-0.11-0.366-0.221-0.731-0.331-1.096c-0.11-0.365-0.221-0.729-0.33-1.092
	c-0.109-0.363-0.22-0.727-0.329-1.089c-0.108-0.361-0.219-0.723-0.327-1.084c-0.109-0.359-0.217-0.719-0.325-1.078
	c-0.108-0.356-0.216-0.713-0.323-1.07c-0.106-0.354-0.214-0.708-0.321-1.062c-0.106-0.351-0.212-0.702-0.318-1.052
	c-0.105-0.347-0.21-0.695-0.315-1.042c-0.104-0.343-0.207-0.687-0.311-1.03c-0.104-0.34-0.205-0.679-0.308-1.018
	c-0.101-0.335-0.202-0.67-0.303-1.005c-0.1-0.329-0.199-0.659-0.299-0.988c-0.098-0.324-0.196-0.648-0.294-0.973
	c-0.096-0.318-0.192-0.637-0.289-0.955c-0.094-0.312-0.188-0.625-0.282-0.938c-0.093-0.305-0.186-0.611-0.278-0.918
	c-0.09-0.299-0.181-0.598-0.271-0.896c-0.088-0.292-0.175-0.584-0.264-0.876c-0.086-0.285-0.173-0.569-0.257-0.854
	c-0.084-0.276-0.167-0.552-0.251-0.829c-0.082-0.268-0.162-0.536-0.243-0.804c-0.079-0.259-0.157-0.519-0.235-0.778
	c-0.076-0.25-0.151-0.5-0.227-0.751c-0.073-0.241-0.146-0.482-0.218-0.722c-0.07-0.231-0.14-0.463-0.209-0.694
	c-0.067-0.221-0.134-0.442-0.2-0.663c-0.064-0.21-0.127-0.421-0.19-0.631c-0.061-0.2-0.121-0.399-0.181-0.599
	c-0.058-0.188-0.114-0.376-0.171-0.565c-0.052-0.176-0.106-0.353-0.159-0.529c-0.05-0.165-0.1-0.33-0.149-0.494
	c-0.045-0.152-0.092-0.305-0.137-0.458c-0.043-0.139-0.085-0.278-0.127-0.417c-0.038-0.127-0.076-0.253-0.113-0.38
	c-0.036-0.113-0.069-0.226-0.104-0.338c-0.029-0.099-0.059-0.198-0.091-0.297c-0.024-0.085-0.051-0.17-0.075-0.255
	c-0.022-0.07-0.042-0.14-0.064-0.211C39.347,10.049,39.346,9.903,39.247,9.831z M25.745,46.972l6.161-25.65
	c0.886,3.718,6.225,25.65,6.225,25.65H25.745z M64.655,75V27.02h13.078V75H64.655z"/>
</svg>
