<?xml version="1.0" encoding="utf-8"?>
<!-- Generator: Adobe Illustrator 16.0.0, SVG Export Plug-In . SVG Version: 6.00 Build 0)  -->
<!DOCTYPE svg PUBLIC "-//W3C//DTD SVG 1.1//EN" "http://www.w3.org/Graphics/SVG/1.1/DTD/svg11.dtd">
<svg version="1.1" id="Layer_1" xmlns="http://www.w3.org/2000/svg" xmlns:xlink="http://www.w3.org/1999/xlink" x="0px" y="0px"
	 width="85.631px" height="86.566px" viewBox="0 0 85.631 86.566" enable-background="new 0 0 85.631 86.566" xml:space="preserve">
<g>
	<path fill-rule="evenodd" clip-rule="evenodd" fill="#172C45" d="M44.034,60.721c-0.002-1.357-0.167-1.488-1.518-1.524
		c-0.934-0.026-1.874,0.122-2.804-0.101c-1.262-0.33-2.224-0.939-2.259-2.415c-0.009-0.391-0.023-0.784,0.053-1.17
		c0.35-1.769,0.683-3.543,1.166-5.287c0.629-0.229,1.254-0.396,1.856,0.075c-0.079,0.534-0.184,1.068-0.283,1.603
		c-0.197,1.07-0.434,2.134-0.636,3.203c-0.282,1.509,0.217,2.075,1.77,2.067c0.181,0,0.362-0.009,0.543-0.023
		c0.45-0.033,0.739-0.267,0.829-0.705c0.436-2.098,1.057-4.161,1.25-6.308c-0.008-0.628,0.102-1.266-0.13-1.88
		c-0.297-0.359-0.705-0.536-1.137-0.621c-0.515-0.101-1.062-0.044-1.544-0.317c-2.164-0.634-4.009-1.849-5.791-3.178
		c-0.227-0.175-0.427-0.377-0.629-0.579c-0.144-0.14-0.282-0.284-0.422-0.428c-0.396-0.401-0.799-0.794-1.194-1.197
		c-0.146-0.14-0.285-0.287-0.407-0.449c-0.226-0.311-0.417-0.644-0.586-0.989c-2.471-3.676-3.121-7.674-2.108-11.967
		c0.22-0.858,0.573-1.647,1.106-2.365c0.667-0.897,1.317-1.808,1.969-2.721c0.029-0.057,0.061-0.105,0.096-0.15
		c0.128,0.13-0.05,0.187-0.065,0.283c-0.557,0.871-0.695,1.887-0.969,2.855c-0.018,0.085-0.028,0.172-0.025,0.259
		c0.02,0.137,0.064,0.256,0.216,0.298c0.014,0.025,0.023,0.051,0.035,0.075c0.126,0.006,0.132,0.219,0.136,0.375
		c0,0.014,0.001,0.027,0.001,0.041c0.067,0.354,0.035,0.716,0.012,1.078c-0.001,0.21-0.003,0.427-0.008,0.653
		c0.011,0.137,0.031,0.273,0.07,0.406c0.114-0.041-0.085,0.103-0.084,0.15c0.007-0.192,0.011-0.377,0.014-0.556
		c-0.016-0.216-0.007-0.434,0.008-0.653c0-0.374-0.005-0.727-0.012-1.078c-0.027-0.14-0.071-0.279-0.137-0.416
		c-0.056-0.002-0.138,0.037-0.254,0.143c-0.239,1.032-0.105,2.075-0.083,3.116c0.273,1.458,0.701,2.862,1.271,4.235
		c1.042,2.506,2.913,4.348,4.873,6.095c1.166,1.039,2.46,1.953,4.038,2.319c0.307,0.005,0.581,0.11,0.863,0.233
		c0.742,0.323,0.897,0.211,0.89-0.62c-0.013-1.454-0.008-2.907-0.006-4.36c0.001-0.614-0.149-1.136-0.688-1.492
		c-0.207-0.253-0.483-0.429-0.715-0.654c-1.283-1.104-2.322-2.418-3.255-3.821c-0.194-0.241-0.28-0.527-0.355-0.819
		c-0.11-0.406-0.169-0.833-0.319-1.223c-0.948-2.457-0.48-4.789,0.584-7.077c0.259-0.576,0.674-1.042,1.059-1.531
		c0.05-0.064,0.097-0.132,0.135-0.204c0.134-0.222,0.192-0.481,0.347-0.701c0.077-0.03,0.088,0,0.036,0.08
		c-0.033,0.049-0.066,0.099-0.096,0.148c-0.317,0.595-0.384,1.276-0.629,1.896c-0.571,3.139,0.274,5.916,2.178,8.411
		c0.338,0.444,0.649,0.986,1.363,0.842c0.531-0.438,0.378-1.053,0.378-1.607c0.011-8.749,0.008-17.496,0.006-26.244
		c0-0.638,0.012-1.271,0.165-1.894c0.009-0.124-0.024-0.235-0.102-0.334c-0.531-0.035-0.897,0.33-1.305,0.565
		C33.092,8.163,23.39,13.766,13.693,19.376c-1.378,0.798-2.735,1.635-4.102,2.453c-0.128,0.505-0.103,1.021-0.103,1.534
		c-0.001,12.157,0,24.313-0.003,36.47c-0.001,0.511,0.055,1.028-0.081,1.537c-0.064,0.149-0.12,0.297-0.028,0.456
		c0.126,0.147,0.298,0.224,0.463,0.313c0.326,0.194,0.592,0.48,0.965,0.597c0.608,0.184,1.118,0.543,1.628,0.902
		c1.917,1.101,3.835,2.202,5.751,3.303c1.571,0.767,3.125,1.5,4.516,2.603c1.912,1.104,3.82,2.213,5.723,3.33
		c0.109,0.059,0.217,0.121,0.325,0.181c0.08,0,0.158,0.003,0.241,0c-0.034,0.001-0.066,0.032-0.097,0.08
		c1.874,1.036,3.716,2.124,5.56,3.211c2.742,1.574,5.474,3.167,8.214,4.747c0.382,0.22,0.767,0.533,1.243,0.201
		c0.292-0.915,0.117-1.857,0.119-2.785C44.048,72.579,44.045,66.65,44.034,60.721z"/>
	<path fill-rule="evenodd" clip-rule="evenodd" fill="#0B213C" d="M9.591,21.829c0.262,0.285,0.149,0.636,0.149,0.956
		c0.005,12.629,0.006,25.257-0.005,37.886c0,0.327,0.2,0.747-0.258,0.967c-0.342-0.168-0.176-0.48-0.176-0.719
		c-0.01-12.74-0.009-25.48-0.005-38.219c0-0.235-0.075-0.488,0.108-0.697C9.466,21.944,9.528,21.887,9.591,21.829z"/>
	<path fill-rule="evenodd" clip-rule="evenodd" fill="#AFAFBC" d="M78.197,61.412c-0.019-13.113,0.001-26.229-0.015-39.348
		c0.096-0.592-0.346-0.759-0.745-0.987c-3.399-1.936-6.768-3.924-10.165-5.863c-1.089-0.622-2.083-1.44-3.332-1.765
		c-4.085-2.34-8.167-4.689-12.258-7.017c-2.516-1.431-4.968-2.979-7.555-4.285c-0.375,0.297-0.386,0.704-0.384,1.139
		c0.008,3.63,0.005,7.261,0.005,10.893c0,5.627,0.003,11.255-0.009,16.881c0,0.346,0.215,0.833-0.39,0.956
		c0.02,0.633,0.523,0.938,0.935,1.256c2.934,2.263,6.143,3.427,9.918,2.593c2.067-0.458,3.739-1.456,5.083-3.062
		c0.058-0.056,0.118-0.208,0.174-0.129c0.02,0.028,0.033,0.029,0.041,0.025c-0.004,0.007-0.011,0.019-0.02,0.043
		c-0.152,0.394-0.295,0.795-0.652,1.063c-1.383,1.97-3.048,3.57-5.446,4.254c-2.202,0.628-4.402,0.622-6.615,0.086
		c-1.245-0.303-2.341-0.939-3.458-1.529c-0.099-0.005-0.189,0.02-0.273,0.073c0.776,0.542,0.738,1.338,0.721,2.158
		c-0.031,1.447-0.009,2.894-0.009,4.382c-0.552-0.186-1.024-0.687-1.681-0.478c0.06,0.405,0.412,0.482,0.706,0.619
		c0.605,0.282,1.258,0.412,1.9,0.577c3.629,0.93,7.157,0.75,10.547-0.954c0.513-0.266,0.942-0.652,1.417-0.968
		c0.069-0.05,0.134-0.102,0.198-0.16c0.381-0.303,0.774-0.589,1.155-0.894c0.056-0.061,0.107-0.124,0.15-0.195
		c0.048-0.078,0.124-0.228,0.133-0.224c0.149,0.064,0.03,0.167,0.001,0.23c-0.471,1.047-1.233,1.894-1.932,2.785
		c-0.542,0.429-0.964,0.983-1.502,1.427c-1.376,1.137-2.97,1.814-4.635,2.363c-1.644,0.571-3.346,0.639-5.066,0.584
		c-0.466-0.014-0.971-0.131-1.389,0.218l0.03,2.087c0.101,0.068,0.219,0.081,0.334,0.109c0.594,0.15,1.423-0.257,1.75,0.214
		c0.314,0.453-0.183,1.183-0.174,1.809c0.021,0.326-0.047,0.629-0.227,0.904c-0.407,1.137-0.538,2.341-0.826,3.507
		c-0.595,2.414-0.058,2.193-2.765,2.233c-0.826,0.013-1.683-0.214-2.476,0.214c0.208,0.331,0.542,0.207,0.827,0.212
		c0.847,0.015,1.7,0.062,2.542-0.011c0.832-0.073,1.001,0.25,0.999,1.027c-0.014,6.843,0.012,13.684,0.038,20.525
		c0,0.213-0.087,0.256-0.243,0.29c0.062,0.062,0.125,0.125,0.188,0.189c0.522,0.157,0.94-0.127,1.346-0.367
		c1.619-0.95,3.256-1.87,4.877-2.817c2.253-1.316,4.512-2.625,6.772-3.933c0.775-0.551,1.623-1.016,2.493-1.437
		c5.326-3.073,10.658-6.137,15.967-9.236c1.03-0.601,2.205-1.007,3.004-1.967C78.22,61.615,78.217,61.512,78.197,61.412z"/>
	<path fill-rule="evenodd" clip-rule="evenodd" fill="#FEFEFE" d="M57.9,40.835c-0.02-0.046-0.007-0.081,0.037-0.105
		c0.544,0.119,0.534,0.112,0.212,0.594c-0.534,0.797-1.21,1.493-1.658,2.35c-1.609,1.896-3.612,3.163-6.023,3.78
		c-3.157,0.864-6.314,0.712-9.474,0.014c-2.181-0.647-4.079-1.797-5.806-3.253c-0.104-0.269-0.298-0.448-0.555-0.568
		c-0.184-0.055-0.305-0.17-0.346-0.362c-0.349-0.506-0.764-0.946-1.291-1.275c-0.179-0.055-0.304-0.164-0.354-0.35
		c0.011-0.424-0.349-0.627-0.548-0.926c-1.357-1.832-2.179-3.871-2.549-6.127c-0.348-2.124-0.303-4.2,0.34-6.257
		c0.555-0.666,0.601-1.604,1.215-2.247c0.206-0.215,0.331-0.438,0.639-0.177c0.016,0.013,0.068,0.188,0.104,0.016
		c0.05-0.242,0.118-0.539,0.406-0.45c0.294,0.09,0.103,0.419,0.126,0.642c0.015,0.148,0.011,0.3-0.067,0.438l0.007-0.01
		c-0.446,1.085-0.104,2.219-0.204,3.326c-0.021,0.236-0.013,0.48,0.206,0.649c0.359,0.349,0.232,0.845,0.34,1.261
		c1.353,5.196,4.685,8.665,9.407,10.955c1.19,0.626,2.462,0.967,3.779,1.226c0.894,0.177,1.778,0.163,2.668,0.232
		c2.439,0.189,4.661-0.56,6.85-1.489c0.542-0.136,0.894-0.551,1.303-0.883l0.008-0.007C57.111,41.532,57.595,41.293,57.9,40.835z"/>
	<path fill-rule="evenodd" clip-rule="evenodd" fill="#FEFEFE" d="M59.032,33.822c-1.364,2.388-3.384,4.042-6.04,4.606
		c-3.333,0.708-6.628,0.511-9.561-1.564c-0.071-0.052-0.145-0.102-0.218-0.154c-0.185-0.266-0.5-0.345-0.75-0.518
		c-1.288-1.103-2.379-2.374-3.25-3.832c-0.138-0.256-0.235-0.527-0.296-0.811c-0.576-1.932-1.131-3.873-0.615-5.911
		c0.226-0.893,0.427-1.805,0.925-2.606c0.238-0.604,0.768-1.017,1.048-1.595l-0.002,0.001c0.322-0.024,0.327,0.227,0.268,0.399
		c-0.102,0.296-0.128,0.609-0.246,0.899c-0.532,3.19,0.413,5.991,2.273,8.542c0.208,0.284,0.518,0.493,0.78,0.738
		c1.868,2.03,4.146,3.214,6.881,3.726c1.498,0.28,2.868,0.147,4.287-0.192c1.917-0.459,3.449-1.497,4.682-3.01
		c0.078-0.087,0.143-0.212,0.284-0.18c0.208,0.048,0.19,0.214,0.121,0.347C59.413,33.078,59.291,33.485,59.032,33.822z"/>
	<path fill-rule="evenodd" clip-rule="evenodd" fill="#FEFEFE" d="M32.11,59.223c-0.909,0-1.818,0.005-2.727,0
		c-2.476-0.016-3.955-1.4-3.939-3.866c0.013-2.131,0.597-4.125,1.975-5.815c1.646-2.02,5.315-2.555,7.448-1.06
		c1.381,0.968,1.794,2.389,1.61,3.994c-0.149,1.302-0.657,2.513-1.106,3.733c-0.142,0.385-0.287,0.721,0.359,0.645
		c0.57-0.069,0.661,0.197,0.551,0.702c-0.361,1.666-0.349,1.668-2.082,1.668C33.502,59.223,32.806,59.223,32.11,59.223z"/>
	<path fill-rule="evenodd" clip-rule="evenodd" fill="#FEFEFE" d="M43.78,50.248c0.695-0.306,1.426-0.094,2.139-0.145
		c0.423-0.029,0.38,0.268,0.322,0.558c-0.113,0.559-0.214,1.121-0.32,1.682c-0.233,0.263,0.104,0.676-0.237,0.911
		c-0.369,1.706-0.769,3.405-1.095,5.118c-0.122,0.645-0.338,0.898-1.044,0.866c-1.38-0.063-2.765-0.006-4.148,0.001
		c-1.882-0.604-2.456-1.486-2.132-3.625c0.258-1.693,0.684-3.36,1.018-5.042c0.055-0.271,0.198-0.425,0.422-0.539
		c0.632-0.185,1.264-0.194,1.894,0.003c0.374,0.254,0.191,0.589,0.128,0.903c-0.297,1.481-0.61,2.958-0.888,4.442
		c-0.093,0.502-0.193,1.118,0.363,1.386c0.663,0.319,1.415,0.207,2.129,0.08c0.066-0.011,0.124-0.193,0.147-0.304
		C42.917,54.444,43.348,52.346,43.78,50.248z"/>
	<path fill-rule="evenodd" clip-rule="evenodd" fill="#FDFDFD" d="M19.759,60.38c0.694-0.326,0.818-1.004,0.968-1.639
		c0.401-1.701,0.8-3.405,1.133-5.121c0.118-0.601,0.354-0.787,0.954-0.786c1.914,0.004,1.909-0.02,1.496,1.839
		c-0.386,1.737-0.721,3.486-1.151,5.212c-0.343,1.377-0.818,2.732-2.519,2.95c-0.685,0.088-1.39,0.027-2.084,0.029
		c-0.18,0.001-0.44-0.004-0.407-0.235c0.072-0.505,0.265-0.996,0.324-1.501c0.084-0.727,0.589-0.619,1.065-0.627
		c0.075-0.002,0.149-0.08,0.224-0.123L19.759,60.38z"/>
	<path fill-rule="evenodd" clip-rule="evenodd" fill="#F6F7F7" d="M24.974,50.029c0.63,0.697-0.002,1.351-0.107,2.004
		c-0.086,0.537-0.639,0.334-0.996,0.33c-1.866-0.024-1.825,0.452-1.309-1.817c0.049-0.216,0.128-0.398,0.326-0.512
		C23.583,49.837,24.278,49.843,24.974,50.029z"/>
	<path fill-rule="evenodd" clip-rule="evenodd" fill="#F7F8F9" d="M32.311,26.571c0-0.297,0-0.595,0-0.892
		c-0.249,0.438-0.828,0.219-0.97,0.38c-0.375,0.426-0.777,0.886-0.897,1.51c-0.058,0.302-0.031,0.768-0.556,0.781
		c0.539-2.001,1.951-3.453,3.159-5.032c0.042-0.159,0.166-0.303,0.301-0.21c0.189,0.129,0.186,0.342,0.002,0.515
		C32.804,24.535,32.744,25.618,32.311,26.571z"/>
	<path fill-rule="evenodd" clip-rule="evenodd" fill="#EAECEF" d="M40.995,47.468c2.14,0.326,4.292,0.363,6.452,0.371
		c1.038,0.004,1.993-0.44,3.021-0.385c-1.242,0.58-2.559,0.689-3.909,0.661c-0.936-0.02-1.873,0.028-2.81,0.046
		C42.863,47.803,41.846,47.969,40.995,47.468z"/>
	<path fill-rule="evenodd" clip-rule="evenodd" fill="#F2F3F4" d="M39.381,22.906c-1.498,2.856-1.23,5.785-0.364,8.739
		c-0.067,0.079-0.125,0.075-0.167-0.024c-1.134-2.954-1.342-5.873,0.334-8.719C39.252,22.821,39.318,22.819,39.381,22.906z"/>
	<path fill-rule="evenodd" clip-rule="evenodd" fill="#F7F8F9" d="M32.32,30.536c-0.253-0.012-0.388-0.14-0.388-0.398
		c0-1.06,0-2.119,0-3.178c0-0.258,0.129-0.389,0.386-0.398c0.008,0.114,0.015,0.229,0.023,0.343
		c0.044,0.065,0.045,0.131,0.001,0.196C32.236,28.245,32.285,29.39,32.32,30.536z"/>
	<path fill-rule="evenodd" clip-rule="evenodd" fill="#142942" d="M28.854,59.508c2.219,0,4.437,0,6.655,0
		c0,0.023,0.001,0.045,0.001,0.068c-2.218,0-4.437,0-6.654,0C28.855,59.553,28.854,59.531,28.854,59.508z"/>
	<path fill-rule="evenodd" clip-rule="evenodd" fill="#D8DBDF" d="M40.297,22.736c-0.225-0.429,0.413-0.873-0.022-1.298
		c0.046-0.432,0.292-0.764,0.542-1.095c0.462,0.042,0.281,0.312,0.196,0.549C40.659,21.462,40.75,22.205,40.297,22.736z"/>
	<path fill-rule="evenodd" clip-rule="evenodd" fill="#0D233D" d="M29.059,33.971c0-1.196,0-2.392,0-3.586
		c0.029-0.001,0.059-0.001,0.087-0.001c0,1.187,0,2.374,0,3.561C29.117,33.953,29.088,33.962,29.059,33.971z"/>
	<path fill-rule="evenodd" clip-rule="evenodd" fill="#10263F" d="M32.342,27.1c0-0.065,0-0.13-0.001-0.196
		c0.144-0.043,0.311-0.108,0.312,0.139c0.005,1.042,0.002,2.085-0.057,3.128C32.327,29.158,32.672,28.104,32.342,27.1z"/>
	<path fill-rule="evenodd" clip-rule="evenodd" fill="#10253F" d="M24.974,50.029c-0.695,0.089-1.391,0.082-2.086,0.004
		c0.68-0.427,1.409-0.166,2.121-0.153c0.006,0,0.019,0.051,0.013,0.075C25.015,49.982,24.991,50.005,24.974,50.029z"/>
	<path fill-rule="evenodd" clip-rule="evenodd" fill="#0D223C" d="M24.42,52.674c-0.705,0-1.408,0-2.113,0c0-0.028,0-0.057,0-0.084
		c0.711,0,1.42,0,2.131,0C24.433,52.617,24.427,52.646,24.42,52.674z"/>
	<path fill-rule="evenodd" clip-rule="evenodd" fill="#10253F" d="M40.6,50.036c-0.631,0.083-1.262,0.089-1.894-0.003
		c0.617-0.45,1.291-0.153,1.943-0.145c0.001,0,0.012,0.053,0.004,0.077C40.644,49.991,40.618,50.012,40.6,50.036z"/>
	<path fill-rule="evenodd" clip-rule="evenodd" fill="#D8DBDF" d="M39.381,22.906c-0.065-0.001-0.131-0.003-0.196-0.004
		c0.305-0.532,0.612-1.062,1.092-1.465C40.207,22.065,39.68,22.417,39.381,22.906z"/>
	<path fill-rule="evenodd" clip-rule="evenodd" fill="#F5F5F7" d="M32.998,42.01c0.666,0.188,1.082,0.626,1.291,1.275
		C33.858,42.86,33.428,42.436,32.998,42.01z"/>
	<path fill-rule="evenodd" clip-rule="evenodd" fill="#F5F5F7" d="M32.096,40.734c0.304,0.237,0.819,0.349,0.548,0.926
		C32.491,41.334,32.146,41.122,32.096,40.734z"/>
	<path fill-rule="evenodd" clip-rule="evenodd" fill="#435468" d="M33.35,23.622c-0.042-0.16,0.174-0.578-0.303-0.305
		c-0.02-0.241,0.023-0.568,0.306-0.436C33.672,23.029,33.702,23.373,33.35,23.622z"/>
	<path fill-rule="evenodd" clip-rule="evenodd" fill="#0D233C" d="M19.763,60.377c-0.296,0-0.593,0-0.89,0
		c0.307-0.204,0.61-0.285,0.886,0.003L19.763,60.377z"/>
	<path fill-rule="evenodd" clip-rule="evenodd" fill="#B1B7C0" d="M42.464,36.191c0.331,0.056,0.68,0.085,0.75,0.518l-0.09,0.006
		l-0.087-0.026C42.92,36.438,42.505,36.53,42.464,36.191z"/>
	<path fill-rule="evenodd" clip-rule="evenodd" fill="#F5F5F7" d="M34.634,43.647c0.378,0,0.565,0.188,0.555,0.568
		C35.004,44.025,34.819,43.837,34.634,43.647z"/>
	<path fill-rule="evenodd" clip-rule="evenodd" fill="#616F7F" d="M38.851,31.621c0.057-0.003,0.113,0.004,0.167,0.024
		c0.034,0.246,0.279,0.436,0.197,0.714C38.944,32.187,38.821,31.941,38.851,31.621z"/>
	<path fill-rule="evenodd" clip-rule="evenodd" fill="#A4ACB6" d="M41.013,20.893c0.009-0.21,0.038-0.427-0.196-0.549
		c0.112-0.122,0.257-0.168,0.343-0.009C41.273,20.543,41.296,20.769,41.013,20.893z"/>
	<path fill-rule="evenodd" clip-rule="evenodd" fill="#FEFEFE" d="M49.353,56.752c1.207,0.383,2.447,0.12,3.669,0.17
		c1.146,0.048,1.053,0.002,0.956,1.134c-0.091,1.058-0.536,1.351-1.537,1.267c-1.048-0.088-2.109,0.011-3.163-0.026
		c-1.364-0.049-2.56-0.436-3.133-1.849c-0.263-1.043-0.144-2.066,0.152-3.082c0.511-2.41,1.837-4.256,4.727-4.423
		c0.067-0.044,0.141-0.069,0.223-0.078c0.449,0.047,0.899,0.09,1.347,0.143c1.635,0.197,2.428,1.071,2.419,2.715
		c-0.006,0.996-0.09,1.987-0.583,2.89c-1,0.259-2.019,0.049-3.027,0.113c-0.864,0.056-1.735-0.105-2.594,0.085
		c-0.151,0.508,0.042,0.815,0.546,0.942L49.353,56.752z"/>
	<path fill-rule="evenodd" clip-rule="evenodd" fill="#FDFDFE" d="M64.989,54.302c1.156-1.681,2.24-3.172,3.224-4.726
		c0.436-0.69,0.942-0.963,1.715-0.854c0.609,0.086,1.493-0.3,1.762,0.196c0.228,0.42-0.552,0.97-0.903,1.446
		c-1.446,1.961-2.891,3.925-4.401,5.837c-0.572,0.726-0.842,1.524-1.007,2.388c-0.089,0.465-0.316,0.702-0.805,0.636
		c-0.06-0.008-0.121-0.002-0.182-0.001c-1.879,0.023-1.879,0.023-1.549-1.819c0.166-0.916-0.284-1.716-0.507-2.553
		c-0.519-1.943-0.536-1.846,1.467-1.967C64.863,52.82,64.748,53.529,64.989,54.302z"/>
	<path fill-rule="evenodd" clip-rule="evenodd" fill="#FDFDFD" d="M62.775,50.035c0.984,0.206,1.539,0.779,1.657,1.806
		c0.045,0.389,0.015,0.531-0.411,0.54c-0.464,0.009-0.949-0.142-1.396,0.112c-0.682,0.327-1.402,0.076-2.102,0.137
		c-0.506,0.043-1.02-0.016-1.528,0.049c-0.56,1.848-0.865,3.752-1.224,5.643c-0.137,0.723-0.406,0.936-1.117,0.918
		c-1.637-0.04-1.635-0.005-1.281-1.648c0.49-2.27,0.977-4.54,1.451-6.813c0.064-0.309,0.122-0.591,0.431-0.744
		c1.545-0.272,3.103-0.054,4.655-0.112C62.196,49.912,62.513,49.808,62.775,50.035z"/>
	<path fill-rule="evenodd" clip-rule="evenodd" fill="#FCFDFD" d="M58.108,27.994c-0.941,1.629-2.476,2.288-4.233,2.493
		c-2.41,0.279-4.538-0.497-6.24-2.164c-1.721-1.684-2.457-3.798-2.042-6.233c0.147-0.865,0.548-1.623,0.998-2.368
		c0.21-0.349,0.334-0.493,0.601-0.088c-0.152,0.3-0.169,0.647-0.332,0.944c-0.15,2.012,0.481,3.807,1.75,5.312
		c1.79,2.122,4.97,3.438,7.921,2.451c0.551-0.185,1.02-0.611,1.526-0.925C58.587,27.564,58.163,27.796,58.108,27.994z"/>
	<path fill-rule="evenodd" clip-rule="evenodd" fill="#E8EAED" d="M56.667,41.837c-0.312,0.475-0.648,0.914-1.303,0.883
		C55.78,42.398,56.168,42.036,56.667,41.837z"/>
	<path fill-rule="evenodd" clip-rule="evenodd" fill="#F7F8F9" d="M31.705,27.127c0,0.953,0,1.905,0,2.857
		c-0.03,0-0.06,0-0.09,0.001c0-0.946,0-1.894,0-2.84C31.645,27.139,31.675,27.132,31.705,27.127z"/>
	<path fill-rule="evenodd" clip-rule="evenodd" fill="#172C45" d="M32.655,50.37c0.559,0.147,0.87,0.504,0.916,1.084
		c-0.009,0.428-0.017,0.854,0.006,1.281c-0.109,1.272-0.656,2.436-0.912,3.67c-0.062,0.306-0.286,0.347-0.547,0.346
		c-0.784-0.004-1.571,0.033-2.354-0.013c-0.749-0.044-1.282-0.507-1.379-1.223c-0.219-1.609,0.119-3.124,1.121-4.432
		c0.55-0.717,1.33-1,2.231-0.929C32.02,50.326,32.315,50.444,32.655,50.37z"/>
	<path fill-rule="evenodd" clip-rule="evenodd" fill="#0E243E" d="M33.578,52.735c-0.308-0.425-0.301-0.853-0.006-1.281
		C33.788,51.88,33.792,52.308,33.578,52.735z"/>
	<path fill-rule="evenodd" clip-rule="evenodd" fill="#0E233D" d="M32.655,50.37c-0.408,0.366-0.654,0.037-0.917-0.215
		C32.077,50.083,32.375,50.189,32.655,50.37z"/>
	<path fill-rule="evenodd" clip-rule="evenodd" fill="#AFAFBC" d="M50.777,53.581c-0.303,0-0.606,0.017-0.907-0.005
		c-0.219-0.017-0.543,0.14-0.619-0.184c-0.055-0.235,0.15-0.443,0.32-0.622c0.533-0.555,1.617-0.763,2.272-0.435
		c0.358,0.179,0.566,0.457,0.522,0.87c-0.055,0.524-0.472,0.35-0.772,0.372C51.323,53.596,51.05,53.581,50.777,53.581z"/>
	<path fill-rule="evenodd" clip-rule="evenodd" fill="#112640" d="M32.452,56.401c-0.956,0-1.912,0-2.826,0
		C30.523,56.264,31.496,56.512,32.452,56.401z"/>
</g>
</svg>
