<?xml version="1.0" encoding="utf-8"?>
<!-- Generator: Adobe Illustrator 16.0.0, SVG Export Plug-In . SVG Version: 6.00 Build 0)  -->
<!DOCTYPE svg PUBLIC "-//W3C//DTD SVG 1.1//EN" "http://www.w3.org/Graphics/SVG/1.1/DTD/svg11.dtd">
<svg version="1.1" id="Layer_1" xmlns="http://www.w3.org/2000/svg" xmlns:xlink="http://www.w3.org/1999/xlink" x="0px" y="0px"
	 width="589px" height="200px" viewBox="0 0 589 200" enable-background="new 0 0 589 200" xml:space="preserve">
<g>
	<rect x="-11" y="-13.144" fill="#70CFED" width="621" height="234.644"/>
</g>
<g>
	<g>
		<path fill="#FFFFFF" d="M51.173,40.021l0.25-0.12c-1.536-3.189-5.365-4.529-8.552-2.995c-3.189,1.536-4.529,5.365-2.994,8.554
			c1.189,2.468,3.754,3.822,6.331,3.597l-0.024-0.276l-0.25,0.12l0.4,0.834c0.032,0.065,0.089,0.117,0.158,0.141
			c0.069,0.024,0.146,0.021,0.212-0.011l3.906-1.88c0.066-0.032,0.117-0.089,0.141-0.158s0.02-0.146-0.012-0.212l-0.401-0.833
			l-0.25,0.12l0.202,0.191c1.782-1.875,2.323-4.723,1.134-7.192L51.173,40.021l-0.249,0.12c1.086,2.255,0.591,4.857-1.037,6.57
			c-0.079,0.083-0.099,0.207-0.048,0.311l0.281,0.583l-3.405,1.64l-0.281-0.583c-0.051-0.104-0.159-0.166-0.274-0.155
			c-2.355,0.204-4.697-1.032-5.783-3.287c-0.702-1.457-0.746-3.058-0.251-4.473s1.527-2.639,2.985-3.34
			c1.457-0.702,3.058-0.746,4.472-0.251c1.415,0.496,2.64,1.528,3.341,2.986L51.173,40.021z"/>
	</g>
	<g>
		<path fill="#FFFFFF" d="M52.023,49.396l-0.121-0.249l-4.846,2.333l-0.275-0.571l4.597-2.213l0.395,0.82L52.023,49.396
			l-0.121-0.249L52.023,49.396l0.25-0.119l-0.517-1.071c-0.031-0.066-0.088-0.117-0.157-0.141c-0.07-0.024-0.146-0.02-0.212,0.012
			l-5.095,2.453c-0.066,0.033-0.117,0.09-0.141,0.159c-0.025,0.069-0.021,0.146,0.011,0.211l0.516,1.071
			c0.031,0.066,0.089,0.117,0.158,0.142c0.068,0.024,0.146,0.02,0.211-0.012l5.095-2.454c0.065-0.032,0.118-0.089,0.142-0.158
			c0.024-0.07,0.019-0.146-0.012-0.212L52.023,49.396z"/>
	</g>
	<g>
		<path fill="#FFFFFF" d="M52.991,51.41l-0.12-0.25l-4.845,2.333l-0.291-0.603l4.596-2.213l0.411,0.854L52.991,51.41l-0.12-0.25
			L52.991,51.41l0.249-0.121l-0.53-1.102c-0.032-0.066-0.089-0.117-0.159-0.142c-0.069-0.024-0.146-0.02-0.211,0.012l-5.095,2.454
			c-0.066,0.032-0.118,0.088-0.141,0.158c-0.024,0.069-0.02,0.146,0.012,0.211l0.53,1.102c0.031,0.066,0.09,0.118,0.159,0.141
			c0.068,0.025,0.145,0.021,0.211-0.011l5.096-2.454c0.066-0.031,0.117-0.089,0.142-0.158c0.023-0.068,0.019-0.146-0.013-0.212
			L52.991,51.41z"/>
	</g>
	<g>
		<path fill="#FFFFFF" d="M51.403,54.627l0.12,0.25c0.87-0.419,1.234-1.462,0.816-2.332c-0.104-0.218-0.249-0.403-0.419-0.554
			c-0.083-0.073-0.204-0.09-0.303-0.042l-2.442,1.176c-0.1,0.048-0.162,0.151-0.157,0.263c0.01,0.227,0.066,0.457,0.171,0.674
			c0.418,0.869,1.462,1.235,2.333,0.816L51.403,54.627l-0.121-0.25c-0.298,0.144-0.623,0.152-0.913,0.052
			c-0.289-0.101-0.538-0.311-0.681-0.608c-0.072-0.15-0.109-0.305-0.117-0.46l-0.276,0.014l0.12,0.25l2.441-1.175l-0.12-0.25
			l-0.183,0.208c0.117,0.103,0.215,0.228,0.287,0.378c0.143,0.298,0.152,0.624,0.05,0.911c-0.102,0.289-0.31,0.538-0.609,0.682
			L51.403,54.627z"/>
	</g>
	<g>
		<path fill="#FFFFFF" d="M48.812,48.424l-2.458-5.105c-0.066-0.138-0.232-0.197-0.371-0.129c-0.137,0.066-0.195,0.231-0.128,0.369
			l2.459,5.106c0.065,0.138,0.231,0.195,0.369,0.129C48.821,48.729,48.878,48.562,48.812,48.424"/>
	</g>
	<g>
		<path fill="#FFFFFF" d="M44.329,45.191l3.086,1.561c0.137,0.069,0.304,0.015,0.373-0.123c0.069-0.137,0.014-0.304-0.122-0.372
			l-3.086-1.561c-0.136-0.07-0.304-0.016-0.373,0.122S44.193,45.122,44.329,45.191"/>
	</g>
	<g>
		<path fill="#FFFFFF" d="M48.006,43.047l-0.704,3.385c-0.032,0.151,0.063,0.298,0.214,0.328c0.149,0.031,0.296-0.064,0.328-0.214
			l0.705-3.386c0.031-0.149-0.066-0.296-0.215-0.327C48.184,42.801,48.036,42.898,48.006,43.047"/>
	</g>
</g>
<g>
	<g>
		<path fill="#FFFFFF" d="M108.282,50.53l-0.267,0.182l6.326,9.27l0.533,9.722l-0.485,0.332l-8.771-4.099l-6.386-9.358l-0.266,0.181
			l0.322,0.018l-0.029-0.001l0.029,0.001l0,0l-0.029-0.001l0.029,0.001c0-0.02,0.053-0.761,0.469-1.736
			c0.417-0.977,1.191-2.189,2.647-3.183c1.597-1.089,3.039-1.336,4.084-1.322c0.522,0.009,0.945,0.083,1.235,0.155
			c0.145,0.036,0.255,0.071,0.33,0.096c0.036,0.013,0.063,0.023,0.08,0.029l0.019,0.007l0.002,0.001l0.03-0.069l-0.031,0.07h0.001
			l0.03-0.069l-0.031,0.07L108.282,50.53l-0.267,0.182L108.282,50.53l0.128-0.294c-0.027-0.011-0.756-0.324-1.913-0.342
			c-1.156-0.019-2.745,0.266-4.455,1.433c-1.598,1.09-2.451,2.439-2.899,3.514c-0.448,1.074-0.497,1.875-0.5,1.9
			c-0.003,0.072,0.016,0.142,0.055,0.201l6.436,9.431c0.033,0.048,0.077,0.086,0.128,0.111l9.02,4.212
			c0.102,0.049,0.223,0.039,0.316-0.026l0.786-0.536c0.093-0.062,0.146-0.169,0.14-0.282l-0.547-9.994
			c-0.003-0.057-0.023-0.115-0.055-0.163l-6.375-9.345c-0.035-0.05-0.083-0.088-0.138-0.113L108.282,50.53z"/>
	</g>
	<g>
		<path fill="#FFFFFF" d="M114.553,59.57l-2.666,0.924c-0.055,0.018-0.104,0.051-0.141,0.094l-1.872,2.208l-2.554,0.815
			c-0.055,0.018-0.104,0.049-0.143,0.093l-2.018,2.272c-0.117,0.132-0.106,0.337,0.027,0.454c0.133,0.119,0.336,0.106,0.454-0.025
			l1.96-2.207l2.557-0.816c0.057-0.018,0.109-0.053,0.147-0.098l1.875-2.211l2.583-0.896c0.167-0.058,0.257-0.241,0.198-0.409
			C114.903,59.601,114.721,59.513,114.553,59.57z"/>
	</g>
	<g>
		<path fill="#FFFFFF" d="M112.266,60.675l-7.013-10.277c-0.101-0.147-0.3-0.186-0.448-0.086c-0.146,0.1-0.185,0.3-0.084,0.448
			l7.013,10.278c0.101,0.146,0.301,0.185,0.449,0.084C112.328,61.021,112.365,60.821,112.266,60.675"/>
	</g>
	<g>
		<path fill="#FFFFFF" d="M100.046,53.895l6.873,10.072c0.1,0.146,0.3,0.185,0.447,0.085c0.146-0.101,0.184-0.301,0.084-0.448
			l-6.873-10.072c-0.1-0.146-0.3-0.185-0.447-0.084C99.983,53.547,99.946,53.748,100.046,53.895"/>
	</g>
	<g>
		<path fill="#FFFFFF" d="M114.808,66.519l-3.21,2.189c-0.146,0.101-0.185,0.3-0.086,0.448c0.101,0.147,0.302,0.184,0.449,0.085
			l3.209-2.191c0.146-0.1,0.185-0.299,0.084-0.447C115.155,66.456,114.954,66.417,114.808,66.519"/>
	</g>
</g>
<g>
	<g>
		<path fill="#FFFFFF" d="M393.61,50.262l0.251-0.119c-1.537-3.189-5.365-4.529-8.553-2.994c-3.189,1.535-4.529,5.364-2.994,8.554
			c1.189,2.468,3.754,3.821,6.33,3.597l-0.023-0.275l-0.25,0.119l0.4,0.834c0.031,0.066,0.089,0.117,0.158,0.142
			s0.146,0.021,0.212-0.011l3.905-1.881c0.066-0.032,0.117-0.09,0.142-0.158s0.02-0.146-0.012-0.212l-0.401-0.833l-0.25,0.12
			l0.202,0.191c1.782-1.874,2.323-4.724,1.134-7.192L393.61,50.262l-0.249,0.121c1.086,2.254,0.592,4.856-1.037,6.57
			c-0.078,0.083-0.098,0.207-0.048,0.311l0.28,0.582l-3.404,1.641l-0.281-0.584c-0.051-0.104-0.159-0.165-0.273-0.154
			c-2.355,0.203-4.697-1.033-5.783-3.287c-0.701-1.457-0.746-3.059-0.251-4.474s1.527-2.639,2.985-3.34
			c1.457-0.702,3.057-0.746,4.472-0.251c1.415,0.496,2.64,1.528,3.341,2.986L393.61,50.262z"/>
	</g>
	<g>
		<path fill="#FFFFFF" d="M394.46,59.637l-0.121-0.248l-4.846,2.332l-0.274-0.57l4.596-2.213l0.395,0.82L394.46,59.637l-0.121-0.248
			L394.46,59.637l0.25-0.119l-0.517-1.07c-0.031-0.066-0.088-0.117-0.157-0.142s-0.146-0.02-0.212,0.013l-5.096,2.452
			c-0.066,0.032-0.117,0.091-0.141,0.159c-0.025,0.068-0.021,0.146,0.012,0.211l0.516,1.071c0.031,0.065,0.09,0.116,0.158,0.142
			c0.068,0.024,0.146,0.02,0.211-0.012l5.096-2.454c0.064-0.032,0.117-0.089,0.142-0.157c0.024-0.07,0.019-0.146-0.012-0.213
			L394.46,59.637z"/>
	</g>
	<g>
		<path fill="#FFFFFF" d="M395.428,61.651l-0.119-0.25l-4.846,2.333l-0.29-0.603l4.596-2.214l0.411,0.854L395.428,61.651
			l-0.119-0.25L395.428,61.651l0.25-0.121l-0.53-1.102c-0.032-0.066-0.089-0.117-0.159-0.143c-0.068-0.023-0.145-0.02-0.211,0.012
			l-5.096,2.455c-0.066,0.031-0.117,0.088-0.141,0.157s-0.02,0.146,0.012,0.212l0.53,1.102c0.031,0.066,0.09,0.118,0.159,0.141
			c0.068,0.025,0.145,0.021,0.211-0.01l5.096-2.455c0.066-0.03,0.117-0.089,0.143-0.158c0.022-0.067,0.018-0.145-0.014-0.211
			L395.428,61.651z"/>
	</g>
	<g>
		<path fill="#FFFFFF" d="M393.84,64.868l0.121,0.25c0.869-0.419,1.234-1.462,0.815-2.332c-0.104-0.217-0.249-0.402-0.419-0.554
			c-0.084-0.073-0.204-0.09-0.304-0.042l-2.442,1.176c-0.1,0.049-0.161,0.151-0.156,0.263c0.01,0.228,0.066,0.457,0.172,0.674
			c0.418,0.868,1.462,1.235,2.332,0.815L393.84,64.868l-0.12-0.25c-0.298,0.145-0.623,0.152-0.913,0.053
			c-0.289-0.102-0.537-0.311-0.681-0.609c-0.072-0.149-0.108-0.305-0.116-0.46l-0.276,0.014l0.12,0.249l2.441-1.175l-0.12-0.25
			l-0.183,0.208c0.116,0.104,0.215,0.229,0.286,0.379c0.144,0.298,0.151,0.623,0.05,0.91c-0.102,0.289-0.309,0.538-0.608,0.682
			L393.84,64.868z"/>
	</g>
	<g>
		<path fill="#FFFFFF" d="M391.248,58.665l-2.457-5.104c-0.066-0.138-0.232-0.196-0.371-0.13c-0.138,0.066-0.195,0.232-0.129,0.369
			l2.459,5.107c0.065,0.137,0.231,0.195,0.369,0.129C391.258,58.969,391.314,58.803,391.248,58.665"/>
	</g>
	<g>
		<path fill="#FFFFFF" d="M386.766,55.432l3.086,1.561c0.138,0.069,0.305,0.016,0.373-0.122c0.069-0.137,0.015-0.304-0.121-0.372
			l-3.086-1.561c-0.137-0.069-0.305-0.016-0.373,0.122S386.63,55.363,386.766,55.432"/>
	</g>
	<g>
		<path fill="#FFFFFF" d="M390.443,53.289l-0.704,3.385c-0.032,0.151,0.063,0.298,0.214,0.327c0.15,0.031,0.297-0.064,0.328-0.214
			l0.705-3.386c0.031-0.148-0.066-0.296-0.216-0.326C390.621,53.042,390.473,53.139,390.443,53.289"/>
	</g>
</g>
<g>
	<g>
		<path fill="#FFFFFF" d="M259.329,74.474l0.25-0.119c-1.536-3.189-5.365-4.529-8.552-2.994c-3.189,1.535-4.529,5.364-2.994,8.554
			c1.189,2.468,3.754,3.821,6.331,3.597l-0.024-0.275l-0.25,0.119l0.4,0.834c0.032,0.066,0.089,0.117,0.158,0.142
			s0.146,0.021,0.212-0.011l3.906-1.881c0.066-0.032,0.117-0.09,0.141-0.158s0.02-0.146-0.012-0.212l-0.401-0.833l-0.25,0.12
			l0.202,0.191c1.782-1.874,2.323-4.724,1.134-7.192L259.329,74.474l-0.249,0.121c1.086,2.254,0.591,4.856-1.037,6.57
			c-0.079,0.083-0.099,0.207-0.048,0.311l0.281,0.582l-3.405,1.641l-0.281-0.584c-0.051-0.104-0.159-0.165-0.274-0.154
			c-2.355,0.203-4.697-1.033-5.783-3.287c-0.702-1.457-0.746-3.059-0.251-4.474s1.527-2.639,2.985-3.34
			c1.457-0.702,3.058-0.746,4.472-0.251c1.415,0.496,2.64,1.528,3.341,2.986L259.329,74.474z"/>
	</g>
	<g>
		<path fill="#FFFFFF" d="M260.179,83.849l-0.121-0.248l-4.846,2.332l-0.275-0.57l4.597-2.213l0.395,0.82L260.179,83.849
			l-0.121-0.248L260.179,83.849l0.25-0.119l-0.517-1.07c-0.031-0.066-0.088-0.117-0.157-0.142c-0.07-0.024-0.146-0.02-0.212,0.013
			l-5.095,2.452c-0.066,0.032-0.117,0.091-0.141,0.159c-0.025,0.068-0.021,0.146,0.011,0.211l0.516,1.071
			c0.031,0.065,0.089,0.116,0.158,0.142c0.068,0.024,0.146,0.02,0.211-0.012l5.095-2.454c0.065-0.032,0.118-0.089,0.142-0.157
			c0.024-0.07,0.019-0.146-0.012-0.213L260.179,83.849z"/>
	</g>
	<g>
		<path fill="#FFFFFF" d="M261.147,85.863l-0.12-0.25l-4.845,2.333l-0.291-0.603l4.596-2.214l0.411,0.854L261.147,85.863l-0.12-0.25
			L261.147,85.863l0.249-0.121l-0.53-1.102c-0.032-0.066-0.089-0.117-0.159-0.143c-0.069-0.023-0.146-0.02-0.211,0.012l-5.095,2.455
			c-0.066,0.031-0.118,0.088-0.141,0.157c-0.024,0.069-0.02,0.146,0.012,0.212l0.53,1.102c0.031,0.066,0.09,0.118,0.159,0.141
			c0.068,0.025,0.145,0.021,0.211-0.01l5.096-2.455c0.066-0.03,0.117-0.089,0.142-0.158c0.023-0.067,0.019-0.145-0.013-0.211
			L261.147,85.863z"/>
	</g>
	<g>
		<path fill="#FFFFFF" d="M259.559,89.08l0.12,0.25c0.87-0.419,1.234-1.462,0.816-2.332c-0.104-0.217-0.249-0.402-0.419-0.554
			c-0.083-0.073-0.204-0.09-0.303-0.042l-2.442,1.176c-0.1,0.049-0.162,0.151-0.157,0.263c0.01,0.228,0.066,0.457,0.171,0.674
			c0.418,0.868,1.462,1.235,2.333,0.815L259.559,89.08l-0.121-0.25c-0.298,0.145-0.623,0.152-0.913,0.053
			c-0.289-0.102-0.538-0.311-0.681-0.609c-0.072-0.149-0.109-0.305-0.117-0.46l-0.276,0.014l0.12,0.249l2.441-1.175l-0.12-0.25
			l-0.183,0.208c0.117,0.104,0.215,0.229,0.287,0.379c0.143,0.298,0.152,0.623,0.05,0.91c-0.102,0.289-0.31,0.538-0.609,0.682
			L259.559,89.08z"/>
	</g>
	<g>
		<path fill="#FFFFFF" d="M256.967,82.876l-2.458-5.104c-0.066-0.138-0.232-0.196-0.371-0.13c-0.137,0.066-0.195,0.232-0.128,0.369
			l2.459,5.107c0.065,0.137,0.231,0.195,0.369,0.129C256.977,83.181,257.034,83.015,256.967,82.876"/>
	</g>
	<g>
		<path fill="#FFFFFF" d="M252.485,79.644l3.086,1.561c0.137,0.069,0.304,0.016,0.373-0.122c0.069-0.137,0.014-0.304-0.122-0.372
			l-3.086-1.561c-0.136-0.069-0.304-0.016-0.373,0.122S252.349,79.575,252.485,79.644"/>
	</g>
	<g>
		<path fill="#FFFFFF" d="M256.162,77.5l-0.704,3.385c-0.032,0.151,0.063,0.298,0.214,0.327c0.149,0.031,0.296-0.064,0.328-0.214
			l0.705-3.386c0.031-0.148-0.066-0.296-0.215-0.326C256.339,77.254,256.192,77.351,256.162,77.5"/>
	</g>
</g>
<g>
	<g>
		<path fill="#FFFFFF" d="M339.845,143.647l-0.267,0.182l6.326,9.271l0.532,9.722l-0.485,0.332l-8.771-4.099l-6.386-9.357
			l-0.266,0.181l0.321,0.018l-0.029-0.001l0.029,0.001l0,0l-0.029-0.001l0.029,0.001c0-0.021,0.053-0.761,0.47-1.735
			c0.417-0.977,1.191-2.189,2.647-3.184c1.598-1.089,3.039-1.336,4.084-1.322c0.522,0.009,0.945,0.084,1.234,0.154
			c0.145,0.037,0.256,0.071,0.33,0.097c0.036,0.013,0.063,0.022,0.08,0.029l0.02,0.007l0.002,0.002l0.029-0.069l-0.03,0.069h0.001
			l0.029-0.068l-0.03,0.07L339.845,143.647l-0.267,0.182L339.845,143.647l0.128-0.294c-0.027-0.012-0.756-0.324-1.912-0.342
			c-1.156-0.02-2.745,0.266-4.455,1.432c-1.599,1.091-2.451,2.439-2.899,3.514s-0.497,1.875-0.499,1.9
			c-0.004,0.072,0.016,0.143,0.055,0.201l6.436,9.431c0.033,0.048,0.077,0.086,0.129,0.11l9.02,4.213
			c0.102,0.049,0.223,0.039,0.316-0.026l0.785-0.536c0.094-0.062,0.146-0.169,0.141-0.282l-0.547-9.993
			c-0.004-0.058-0.023-0.115-0.055-0.163l-6.375-9.345c-0.035-0.051-0.083-0.089-0.139-0.113L339.845,143.647z"/>
	</g>
	<g>
		<path fill="#FFFFFF" d="M346.115,152.688l-2.666,0.925c-0.055,0.019-0.104,0.052-0.141,0.095l-1.872,2.207l-2.554,0.816
			c-0.055,0.018-0.104,0.049-0.143,0.092l-2.018,2.273c-0.117,0.131-0.106,0.336,0.027,0.453c0.133,0.119,0.336,0.106,0.454-0.025
			l1.96-2.207l2.557-0.815c0.057-0.019,0.109-0.053,0.146-0.098l1.876-2.212l2.583-0.895c0.168-0.059,0.258-0.242,0.199-0.41
			C346.466,152.719,346.283,152.631,346.115,152.688z"/>
	</g>
	<g>
		<path fill="#FFFFFF" d="M343.828,153.793l-7.013-10.277c-0.101-0.148-0.3-0.186-0.448-0.086c-0.146,0.1-0.184,0.3-0.084,0.447
			l7.014,10.279c0.1,0.145,0.301,0.185,0.448,0.084C343.891,154.139,343.928,153.939,343.828,153.793"/>
	</g>
	<g>
		<path fill="#FFFFFF" d="M331.609,147.012l6.872,10.072c0.1,0.146,0.3,0.185,0.446,0.085c0.146-0.101,0.184-0.302,0.084-0.448
			l-6.872-10.071c-0.1-0.146-0.3-0.185-0.446-0.084C331.546,146.665,331.508,146.865,331.609,147.012"/>
	</g>
	<g>
		<path fill="#FFFFFF" d="M346.37,159.637l-3.21,2.189c-0.146,0.1-0.185,0.3-0.086,0.447c0.101,0.146,0.303,0.184,0.449,0.085
			l3.209-2.19c0.146-0.1,0.185-0.3,0.084-0.447C346.717,159.574,346.516,159.535,346.37,159.637"/>
	</g>
</g>
<g>
	<g>
		<path fill="#FFFFFF" d="M55.085,146.158h-0.278c0,1.705-0.009,3.186-0.109,4.439c-0.076,0.941-0.203,1.753-0.412,2.434
			c-0.315,1.024-0.799,1.744-1.576,2.233c-0.78,0.488-1.888,0.747-3.463,0.747c-1.25,0-2.187-0.231-2.891-0.652
			c-0.531-0.316-0.938-0.742-1.263-1.283c-0.486-0.81-0.771-1.891-0.932-3.213c-0.16-1.32-0.194-2.877-0.194-4.634
			c0-1.776,0.009-3.24,0.106-4.426c0.073-0.891,0.194-1.624,0.392-2.214c0.147-0.444,0.335-0.806,0.574-1.104
			c0.359-0.442,0.835-0.752,1.517-0.961c0.681-0.208,1.563-0.307,2.69-0.305c1.373-0.002,2.401,0.133,3.158,0.422
			c0.568,0.218,0.983,0.516,1.307,0.924c0.486,0.613,0.768,1.501,0.92,2.75c0.153,1.249,0.176,2.846,0.175,4.842H55.085h0.278
			c0-1.78-0.018-3.249-0.132-4.466c-0.087-0.91-0.227-1.68-0.465-2.329c-0.178-0.488-0.413-0.909-0.72-1.262
			c-0.458-0.528-1.077-0.893-1.865-1.117c-0.789-0.229-1.749-0.32-2.936-0.32c-1.373,0-2.429,0.136-3.259,0.473
			c-0.622,0.251-1.111,0.623-1.476,1.124c-0.547,0.748-0.813,1.749-0.952,3.051c-0.139,1.304-0.15,2.917-0.15,4.918
			c0.003,3.138,0.098,5.674,0.876,7.488c0.39,0.906,0.964,1.633,1.783,2.12c0.817,0.486,1.86,0.729,3.177,0.729
			c1.451,0,2.572-0.207,3.443-0.653c0.653-0.333,1.159-0.803,1.533-1.392c0.563-0.885,0.84-2.019,0.985-3.407
			s0.156-3.036,0.156-4.955h-0.278V146.158z"/>
	</g>
	<g>
		<path fill="#FFFFFF" d="M50.559,151.498c-0.043,0.142-0.112,0.281-0.206,0.421c-0.145,0.219-0.29,0.33-0.433,0.33
			c-0.055,0-0.134-0.018-0.236-0.053c-0.096-0.036-0.181-0.055-0.254-0.055c-0.069,0-0.148,0.019-0.238,0.056
			c-0.091,0.038-0.165,0.057-0.222,0.057c-0.17,0-0.339-0.145-0.506-0.438c-0.166-0.291-0.248-0.573-0.248-0.844
			c0-0.257,0.064-0.467,0.19-0.632c0.127-0.161,0.285-0.241,0.478-0.241c0.081,0,0.18,0.017,0.298,0.051
			c0.117,0.034,0.195,0.051,0.232,0.051c0.051,0,0.13-0.019,0.241-0.058c0.115-0.037,0.211-0.056,0.291-0.056
			c0.134,0,0.253,0.037,0.358,0.108c0.059,0.041,0.118,0.097,0.175,0.169c-0.088,0.074-0.152,0.141-0.191,0.199
			c-0.073,0.105-0.109,0.223-0.109,0.347c0,0.14,0.038,0.266,0.116,0.376C50.37,151.397,50.459,151.47,50.559,151.498
			 M49.926,149.526c0,0.067-0.016,0.145-0.048,0.229c-0.034,0.083-0.087,0.161-0.158,0.233c-0.06,0.06-0.121,0.1-0.181,0.12
			c-0.042,0.014-0.1,0.022-0.175,0.027c0.004-0.165,0.048-0.31,0.132-0.431c0.083-0.12,0.223-0.202,0.421-0.25l0.003,0.019
			l0.004,0.019v0.018L49.926,149.526z"/>
	</g>
</g>
<g>
	<g>
		<path fill="#FFFFFF" d="M565.721,165.209h-0.277c0,1.705-0.01,3.186-0.109,4.439c-0.076,0.941-0.203,1.753-0.412,2.434
			c-0.316,1.024-0.799,1.744-1.576,2.233c-0.78,0.488-1.889,0.747-3.463,0.747c-1.251,0-2.188-0.231-2.892-0.652
			c-0.53-0.316-0.938-0.742-1.263-1.283c-0.486-0.81-0.771-1.891-0.932-3.213c-0.16-1.32-0.193-2.877-0.193-4.634
			c0-1.776,0.009-3.24,0.105-4.426c0.072-0.891,0.194-1.624,0.392-2.214c0.147-0.444,0.335-0.806,0.574-1.104
			c0.359-0.442,0.835-0.752,1.517-0.961c0.682-0.208,1.564-0.307,2.691-0.305c1.372-0.002,2.4,0.133,3.157,0.422
			c0.568,0.218,0.983,0.516,1.308,0.924c0.485,0.613,0.768,1.501,0.92,2.75c0.153,1.249,0.176,2.846,0.176,4.842H565.721H566
			c0-1.78-0.019-3.249-0.133-4.466c-0.086-0.91-0.227-1.68-0.465-2.329c-0.178-0.488-0.412-0.909-0.719-1.262
			c-0.459-0.528-1.078-0.893-1.865-1.117c-0.789-0.229-1.75-0.32-2.937-0.32c-1.372,0-2.429,0.136-3.259,0.473
			c-0.621,0.251-1.111,0.623-1.476,1.124c-0.548,0.748-0.813,1.749-0.952,3.051c-0.139,1.304-0.15,2.917-0.15,4.918
			c0.004,3.138,0.099,5.674,0.877,7.488c0.39,0.906,0.964,1.633,1.783,2.12c0.816,0.486,1.859,0.729,3.177,0.729
			c1.45,0,2.572-0.207,3.443-0.653c0.653-0.333,1.159-0.803,1.533-1.392c0.563-0.885,0.84-2.019,0.985-3.407S566,167.13,566,165.211
			h-0.279V165.209z"/>
	</g>
	<g>
		<path fill="#FFFFFF" d="M561.195,170.549c-0.044,0.142-0.113,0.281-0.207,0.421c-0.145,0.219-0.289,0.33-0.433,0.33
			c-0.056,0-0.134-0.018-0.235-0.053c-0.097-0.036-0.182-0.055-0.255-0.055c-0.069,0-0.147,0.019-0.238,0.056
			c-0.091,0.038-0.165,0.057-0.222,0.057c-0.17,0-0.34-0.145-0.506-0.438c-0.166-0.291-0.248-0.573-0.248-0.844
			c0-0.257,0.063-0.467,0.189-0.632c0.127-0.161,0.285-0.241,0.478-0.241c0.081,0,0.181,0.017,0.298,0.051s0.195,0.051,0.232,0.051
			c0.051,0,0.13-0.019,0.24-0.058c0.115-0.037,0.211-0.056,0.291-0.056c0.134,0,0.253,0.037,0.358,0.108
			c0.059,0.041,0.118,0.097,0.175,0.169c-0.088,0.074-0.152,0.141-0.191,0.199c-0.072,0.105-0.108,0.223-0.108,0.347
			c0,0.14,0.038,0.266,0.116,0.376C561.006,170.448,561.096,170.521,561.195,170.549 M560.562,168.577
			c0,0.067-0.016,0.145-0.049,0.229c-0.033,0.083-0.086,0.161-0.157,0.233c-0.06,0.06-0.12,0.1-0.181,0.12
			c-0.042,0.014-0.1,0.022-0.176,0.027c0.004-0.165,0.048-0.31,0.132-0.431c0.083-0.12,0.224-0.202,0.421-0.25l0.004,0.019
			l0.004,0.019v0.018L560.562,168.577z"/>
	</g>
</g>
<g>
	<g>
		<path fill="#FFFFFF" d="M152.928,166.227h-0.263v11.608c0,0.069,0.028,0.136,0.078,0.186c0.048,0.049,0.117,0.076,0.186,0.076
			h18.315c0.069,0,0.136-0.027,0.186-0.076c0.049-0.05,0.078-0.116,0.078-0.186v-11.608c0-0.069-0.029-0.138-0.078-0.186
			c-0.049-0.049-0.117-0.076-0.186-0.076h-1.869l-2.116-2.117c-0.048-0.049-0.117-0.076-0.186-0.076h-4.643
			c-0.067,0-0.131,0.023-0.181,0.071l-2.246,2.122h-7.074c-0.069,0-0.137,0.027-0.186,0.076c-0.049,0.048-0.078,0.116-0.078,0.186
			H152.928v0.263h7.18c0.067,0,0.131-0.024,0.18-0.071l2.246-2.121h4.429l2.116,2.115c0.049,0.05,0.117,0.077,0.186,0.077h1.715
			v11.083H153.19v-11.346H152.928v0.263V166.227z"/>
	</g>
	<g>
		<path fill="#FFFFFF" d="M169.157,171.579h-0.263c-0.001,1.144-0.465,2.18-1.213,2.929c-0.751,0.75-1.787,1.215-2.931,1.215
			c-1.146,0-2.18-0.463-2.93-1.215c-0.75-0.751-1.214-1.785-1.214-2.929c0-1.146,0.463-2.18,1.214-2.931
			c0.751-0.75,1.784-1.213,2.93-1.213c1.144,0,2.179,0.463,2.931,1.213c0.748,0.751,1.212,1.785,1.213,2.931H169.157h0.262
			c0-2.58-2.09-4.67-4.668-4.67c-2.579,0-4.669,2.09-4.669,4.67c0,2.578,2.09,4.668,4.669,4.668c2.578,0,4.668-2.09,4.668-4.668
			H169.157z"/>
	</g>
	<g>
		<path fill="#FFFFFF" d="M167.223,171.579h-0.263c0,0.61-0.247,1.162-0.647,1.562c-0.401,0.399-0.951,0.646-1.562,0.646
			c-0.611,0-1.162-0.247-1.563-0.646c-0.4-0.4-0.646-0.952-0.646-1.562c0-0.611,0.247-1.161,0.646-1.562
			c0.401-0.399,0.952-0.646,1.563-0.646c0.61,0,1.161,0.247,1.562,0.646c0.401,0.401,0.647,0.951,0.647,1.562H167.223h0.263
			c0-1.511-1.225-2.734-2.735-2.734c-1.512,0-2.736,1.224-2.736,2.734c0,1.51,1.224,2.734,2.736,2.734
			c1.509,0,2.735-1.224,2.735-2.734H167.223z"/>
	</g>
	<g>
		<path fill="#FFFFFF" d="M156.195,168.483h-0.263c-0.001,0.364-0.296,0.66-0.661,0.662c-0.366-0.002-0.662-0.298-0.663-0.662
			c0.001-0.366,0.297-0.662,0.663-0.662c0.365,0,0.66,0.296,0.661,0.662H156.195h0.263c-0.001-0.657-0.53-1.186-1.186-1.186
			c-0.656,0-1.187,0.528-1.188,1.186c0.001,0.655,0.532,1.187,1.188,1.187c0.656,0,1.185-0.531,1.186-1.187H156.195z"/>
	</g>
	<g>
		<path fill="#FFFFFF" d="M153.664,166.098v-0.725h1.838v0.854c0,0.144,0.118,0.263,0.263,0.263c0.146,0,0.264-0.119,0.264-0.263
			v-1.117c0-0.07-0.028-0.137-0.078-0.188c-0.049-0.048-0.116-0.077-0.186-0.077h-2.364c-0.07,0-0.137,0.029-0.186,0.077
			c-0.049,0.051-0.078,0.117-0.078,0.188v0.988c0,0.145,0.118,0.264,0.263,0.264C153.545,166.361,153.664,166.242,153.664,166.098z"
			/>
	</g>
</g>
<g>
	<g>
		<path fill="#FFFFFF" d="M441.178,115.987h-0.264v11.608c0,0.069,0.028,0.136,0.078,0.186c0.048,0.049,0.116,0.076,0.186,0.076
			h18.314c0.068,0,0.137-0.027,0.186-0.076c0.049-0.05,0.078-0.116,0.078-0.186v-11.608c0-0.069-0.029-0.138-0.078-0.186
			c-0.049-0.049-0.117-0.076-0.186-0.076h-1.869l-2.116-2.117c-0.048-0.049-0.116-0.076-0.186-0.076h-4.644
			c-0.066,0-0.131,0.023-0.181,0.071l-2.245,2.122h-7.074c-0.069,0-0.138,0.027-0.186,0.076c-0.05,0.048-0.078,0.116-0.078,0.186
			H441.178v0.263h7.18c0.066,0,0.131-0.024,0.18-0.071l2.246-2.121h4.428l2.117,2.115c0.049,0.05,0.116,0.077,0.186,0.077h1.715
			v11.083h-17.789v-11.346H441.178v0.263V115.987z"/>
	</g>
	<g>
		<path fill="#FFFFFF" d="M457.406,121.34h-0.262c-0.002,1.144-0.465,2.18-1.214,2.929c-0.751,0.75-1.787,1.215-2.931,1.215
			c-1.146,0-2.18-0.463-2.93-1.215c-0.751-0.751-1.215-1.785-1.215-2.929c0-1.146,0.463-2.18,1.215-2.931
			c0.75-0.75,1.783-1.213,2.93-1.213c1.144,0,2.18,0.463,2.931,1.213c0.748,0.751,1.212,1.785,1.214,2.931H457.406h0.263
			c0-2.58-2.09-4.67-4.668-4.67c-2.579,0-4.669,2.09-4.669,4.67c0,2.578,2.09,4.668,4.669,4.668c2.578,0,4.668-2.09,4.668-4.668
			H457.406z"/>
	</g>
	<g>
		<path fill="#FFFFFF" d="M455.473,121.34h-0.264c0,0.61-0.246,1.162-0.647,1.562c-0.401,0.399-0.951,0.646-1.562,0.646
			c-0.611,0-1.162-0.247-1.562-0.646c-0.4-0.4-0.646-0.952-0.646-1.562c0-0.611,0.246-1.161,0.646-1.562
			c0.4-0.399,0.951-0.646,1.562-0.646c0.61,0,1.16,0.247,1.562,0.646c0.401,0.401,0.647,0.951,0.647,1.562H455.473h0.262
			c0-1.511-1.225-2.734-2.734-2.734c-1.512,0-2.736,1.224-2.736,2.734c0,1.51,1.224,2.734,2.736,2.734
			c1.509,0,2.734-1.224,2.734-2.734H455.473z"/>
	</g>
	<g>
		<path fill="#FFFFFF" d="M444.444,118.244h-0.263c-0.001,0.364-0.296,0.66-0.661,0.662c-0.366-0.002-0.662-0.298-0.663-0.662
			c0.001-0.366,0.297-0.662,0.663-0.662c0.365,0,0.66,0.296,0.661,0.662H444.444h0.263c0-0.657-0.529-1.186-1.186-1.186
			s-1.188,0.528-1.188,1.186c0,0.655,0.531,1.187,1.188,1.187s1.186-0.531,1.186-1.187H444.444z"/>
	</g>
	<g>
		<path fill="#FFFFFF" d="M441.913,115.858v-0.725h1.838v0.854c0,0.144,0.118,0.263,0.263,0.263c0.146,0,0.264-0.119,0.264-0.263
			v-1.117c0-0.07-0.027-0.137-0.077-0.188c-0.05-0.048-0.116-0.077-0.187-0.077h-2.363c-0.07,0-0.137,0.029-0.186,0.077
			c-0.049,0.051-0.078,0.117-0.078,0.188v0.988c0,0.145,0.118,0.264,0.264,0.264C441.795,116.122,441.913,116.003,441.913,115.858z"
			/>
	</g>
</g>
<g>
	
		<rect x="78.401" y="97.007" transform="matrix(-0.9923 0.124 -0.124 -0.9923 220.326 197.7025)" fill="none" width="51.22" height="17.4"/>
</g>
<g enable-background="new    ">
	<path fill="#FFFFFF" d="M84.275,113.852l-0.306-1.27c3.341-1.596,6.664-6.374,5.216-7.499c-1.261-0.982-4.247,4.134-5.294,5.699
		c-0.338-0.171-0.683-0.401-0.903-0.648c1.665-2.525,3.58-6.6,6.422-6.955c3.695-0.461,2.467,6.582-2.897,9.866l-0.081,0.031
		c0.389,0.246,0.69,0.631,0.817,1.142c1.956-0.876,3.484-2.481,5.243-5.102l0.124-0.186c0.307,0.088,0.722,0.374,0.903,0.646
		c-2.041,3.058-4.049,4.869-6.244,5.859c-0.049,0.28-0.141,0.566-0.267,0.898l-0.893,2.134c-1.202,2.869-4.54,2.803-4.799,0.727
		c-0.203-1.618,1.494-3.053,4.329-4.313c0.262-0.771-0.567-1.173-1.328-1.015l-0.041,0.005l-0.021,0.004L84.275,113.852z
		 M84.181,118.331l0.8-1.87c-1.6,0.854-2.04,1.562-1.969,2.122C83.084,119.165,83.806,119.2,84.181,118.331z"/>
	<path fill="#FFFFFF" d="M94.583,109.15l-0.161,0.399c-0.778,1.867,0.114,2.599,1.441,2.432c1.516-0.188,3.329-1.87,4.66-3.869
		l0.124-0.185c0.307,0.087,0.721,0.375,0.904,0.647c-1.526,2.297-3.716,4.509-6.165,4.815c-2.552,0.318-3.979-1.652-2.918-4.123
		l1.778-4.164c0.715-1.691,1.992-2.779,3.735-2.997c1.763-0.22,3.071,1.135,2.158,3.272l-0.243,0.577
		C98.627,108.959,96.045,109.557,94.583,109.15z M95.073,108.014c0.846,0.188,2.241,0.058,3.058-1.837l0.244-0.578
		c1.007-2.401-1.237-2.479-2.215-0.188L95.073,108.014z"/>
	<path fill="#FFFFFF" d="M105.979,107.261c0.306,0.089,0.722,0.375,0.903,0.647c-1.525,2.299-3.341,4.463-5.125,4.687
		c-1.743,0.218-2.571-1.175-1.857-2.889l5.463-12.948l2.158-0.269l-5.684,13.546c-0.391,0.912-0.081,1.211,0.396,1.15
		c0.955-0.119,2.291-1.739,3.622-3.739L105.979,107.261z"/>
	<path fill="#FFFFFF" d="M116.168,105.988c0.306,0.088,0.722,0.374,0.904,0.646c-1.527,2.299-3.342,4.464-5.127,4.687
		c-1.1,0.138-1.837-0.358-2.044-1.178c-0.931,0.98-1.94,1.677-2.812,1.785c-1.742,0.218-2.57-1.176-1.856-2.888l2.375-5.607
		c0.717-1.691,2.221-2.808,3.383-2.952c1.411-0.177,2.502,0.972,2.534,1.897l1.225-0.153l-2.724,6.536
		c-0.392,0.912-0.081,1.21,0.396,1.15c0.955-0.119,2.291-1.739,3.622-3.738L116.168,105.988z M107.17,109.368
		c-0.392,0.913-0.081,1.211,0.396,1.151c0.893-0.112,2.058-1.247,3.107-3.466l1.313-3.157c0.815-2.081-1.554-2.314-2.463-0.154
		L107.17,109.368z"/>
	<path fill="#FFFFFF" d="M120.938,99.639c0.399-0.345,0.832-0.588,1.351-0.653c1.204-0.151,2.055,0.585,2.192,1.687
		c0.086,0.684-0.08,1.549-0.501,2.569l-1.596,3.761c1.057-0.151,2.218-0.803,3.059-2.003l0.125-0.186
		c0.306,0.089,0.721,0.375,0.902,0.647c-0.936,1.444-2.872,2.486-4.157,2.646c-0.167,0.022-0.312,0.04-0.481,0.041
		c-0.905,1.525-2.217,2.321-3.421,2.471c-1.391,0.174-2.594-0.517-2.778-1.992c-0.085-0.685,0.042-1.521,0.467-2.503l4.784-11.304
		l2.199-0.275L120.938,99.639z M120.001,107.829c-0.851-0.401-1.366-1.158-1.649-2.07l-0.602,1.424
		c-0.192,0.487-0.273,0.854-0.234,1.166c0.067,0.539,0.499,0.781,0.975,0.722C119.03,109.002,119.653,108.589,120.001,107.829z
		 M120.491,106.691l1.728-4.051c0.228-0.536,0.298-0.987,0.254-1.339c-0.073-0.58-0.448-0.892-0.926-0.833
		c-1.224,0.152-2.405,2.85-2.212,4.385C119.444,105.727,119.879,106.348,120.491,106.691z"/>
</g>
<g enable-background="new    ">
	<path fill="#FFFFFF" d="M466.474,49.059l-0.307-1.27c3.342-1.596,6.664-6.374,5.217-7.499c-1.262-0.982-4.247,4.134-5.295,5.699
		c-0.338-0.171-0.683-0.401-0.902-0.648c1.665-2.525,3.58-6.6,6.422-6.955c3.695-0.461,2.467,6.582-2.896,9.866l-0.081,0.031
		c0.389,0.246,0.69,0.631,0.817,1.142c1.955-0.876,3.484-2.481,5.242-5.102l0.125-0.186c0.307,0.088,0.721,0.374,0.902,0.646
		c-2.041,3.058-4.049,4.869-6.244,5.859c-0.049,0.28-0.141,0.566-0.267,0.898l-0.893,2.134c-1.202,2.869-4.54,2.803-4.799,0.727
		c-0.202-1.618,1.494-3.053,4.329-4.313c0.262-0.771-0.567-1.173-1.328-1.015l-0.041,0.005l-0.021,0.004L466.474,49.059z
		 M466.378,53.539l0.801-1.87c-1.601,0.854-2.04,1.562-1.969,2.122C465.282,54.373,466.003,54.408,466.378,53.539z"/>
	<path fill="#FFFFFF" d="M476.78,44.358l-0.16,0.399c-0.779,1.867,0.113,2.599,1.441,2.432c1.516-0.188,3.328-1.87,4.659-3.869
		l0.124-0.185c0.307,0.087,0.721,0.375,0.904,0.647c-1.526,2.297-3.717,4.509-6.165,4.815c-2.552,0.318-3.979-1.652-2.918-4.123
		l1.778-4.164c0.715-1.691,1.991-2.779,3.734-2.997c1.764-0.22,3.072,1.135,2.158,3.272l-0.243,0.577
		C480.825,44.167,478.243,44.764,476.78,44.358z M477.271,43.221c0.846,0.188,2.241,0.058,3.059-1.837l0.244-0.578
		c1.006-2.401-1.237-2.479-2.215-0.188L477.271,43.221z"/>
	<path fill="#FFFFFF" d="M488.177,42.468c0.307,0.089,0.723,0.375,0.903,0.647c-1.524,2.299-3.341,4.463-5.126,4.687
		c-1.742,0.218-2.57-1.175-1.856-2.889l5.464-12.948l2.158-0.269l-5.685,13.546c-0.392,0.912-0.081,1.211,0.396,1.15
		c0.954-0.119,2.29-1.739,3.622-3.739L488.177,42.468z"/>
	<path fill="#FFFFFF" d="M498.366,41.196c0.306,0.088,0.721,0.374,0.903,0.646c-1.526,2.299-3.342,4.464-5.127,4.687
		c-1.101,0.138-1.837-0.358-2.044-1.178c-0.932,0.98-1.94,1.677-2.812,1.785c-1.742,0.218-2.57-1.176-1.855-2.888l2.375-5.607
		c0.717-1.691,2.221-2.808,3.383-2.952c1.411-0.177,2.503,0.972,2.534,1.897l1.225-0.153l-2.724,6.536
		c-0.392,0.912-0.081,1.21,0.396,1.15c0.955-0.119,2.291-1.739,3.621-3.738L498.366,41.196z M489.368,44.576
		c-0.393,0.913-0.082,1.211,0.396,1.151c0.893-0.112,2.057-1.247,3.107-3.466l1.312-3.157c0.814-2.081-1.554-2.314-2.463-0.154
		L489.368,44.576z"/>
	<path fill="#FFFFFF" d="M503.136,34.846c0.398-0.345,0.832-0.588,1.352-0.653c1.203-0.151,2.055,0.585,2.191,1.687
		c0.086,0.684-0.08,1.549-0.501,2.569l-1.596,3.761c1.058-0.151,2.218-0.803,3.06-2.003l0.125-0.186
		c0.305,0.089,0.721,0.375,0.901,0.647c-0.936,1.444-2.872,2.486-4.157,2.646c-0.166,0.022-0.312,0.04-0.48,0.041
		c-0.906,1.525-2.218,2.321-3.422,2.471c-1.391,0.174-2.594-0.517-2.777-1.992c-0.086-0.685,0.041-1.521,0.467-2.503l4.783-11.304
		l2.199-0.275L503.136,34.846z M502.198,43.037c-0.85-0.401-1.365-1.158-1.648-2.07l-0.602,1.424
		c-0.193,0.487-0.273,0.854-0.234,1.166c0.066,0.539,0.498,0.781,0.975,0.722C501.228,44.209,501.851,43.796,502.198,43.037z
		 M502.688,41.899l1.729-4.051c0.229-0.536,0.298-0.987,0.254-1.339c-0.072-0.58-0.447-0.892-0.926-0.833
		c-1.224,0.152-2.404,2.85-2.213,4.385C501.642,40.934,502.077,41.555,502.688,41.899z"/>
</g>
<g>
	<g>
		<path fill="#FFFFFF" d="M290.759,15.266l-0.267,0.182l6.326,9.27l0.532,9.722l-0.485,0.332l-8.771-4.099l-6.386-9.358
			l-0.266,0.181l0.322,0.018l-0.029-0.001l0.029,0.001l0,0l-0.029-0.001l0.029,0.001c0-0.02,0.053-0.761,0.469-1.736
			c0.417-0.977,1.191-2.189,2.647-3.183c1.597-1.089,3.039-1.336,4.084-1.322c0.522,0.009,0.945,0.083,1.235,0.155
			c0.145,0.036,0.255,0.071,0.33,0.096c0.036,0.013,0.063,0.023,0.08,0.029l0.019,0.007l0.002,0.001l0.03-0.069l-0.031,0.07h0.001
			l0.03-0.069l-0.031,0.07L290.759,15.266l-0.267,0.182L290.759,15.266l0.128-0.294c-0.027-0.011-0.756-0.324-1.913-0.342
			c-1.156-0.019-2.745,0.266-4.455,1.433c-1.598,1.09-2.451,2.439-2.899,3.514c-0.448,1.074-0.497,1.875-0.5,1.9
			c-0.003,0.072,0.016,0.142,0.055,0.201l6.436,9.431c0.033,0.048,0.077,0.086,0.128,0.111l9.02,4.212
			c0.102,0.049,0.223,0.039,0.316-0.026l0.785-0.536c0.094-0.062,0.146-0.169,0.141-0.282l-0.547-9.994
			c-0.004-0.057-0.023-0.115-0.055-0.163l-6.375-9.345c-0.035-0.05-0.083-0.088-0.138-0.113L290.759,15.266z"/>
	</g>
	<g>
		<path fill="#FFFFFF" d="M297.029,24.306l-2.666,0.924c-0.055,0.018-0.104,0.051-0.141,0.094l-1.872,2.208l-2.554,0.815
			c-0.055,0.018-0.104,0.049-0.143,0.093l-2.018,2.272c-0.117,0.132-0.106,0.337,0.027,0.454c0.133,0.119,0.336,0.106,0.454-0.025
			l1.96-2.207l2.557-0.816c0.057-0.018,0.109-0.053,0.147-0.098l1.875-2.211l2.583-0.896c0.168-0.058,0.258-0.241,0.199-0.409
			C297.38,24.337,297.197,24.249,297.029,24.306z"/>
	</g>
	<g>
		<path fill="#FFFFFF" d="M294.742,25.411l-7.013-10.277c-0.101-0.147-0.3-0.186-0.448-0.086c-0.146,0.1-0.185,0.3-0.084,0.448
			l7.013,10.278c0.101,0.146,0.301,0.185,0.449,0.084C294.805,25.757,294.842,25.557,294.742,25.411"/>
	</g>
	<g>
		<path fill="#FFFFFF" d="M282.523,18.63l6.873,10.072c0.1,0.146,0.3,0.185,0.447,0.085c0.146-0.101,0.184-0.301,0.084-0.448
			l-6.873-10.072c-0.1-0.146-0.3-0.185-0.447-0.084C282.46,18.283,282.422,18.484,282.523,18.63"/>
	</g>
	<g>
		<path fill="#FFFFFF" d="M297.284,31.255l-3.21,2.189c-0.146,0.101-0.185,0.3-0.086,0.448c0.101,0.147,0.302,0.184,0.449,0.085
			l3.209-2.191c0.146-0.1,0.185-0.299,0.084-0.447C297.631,31.192,297.43,31.153,297.284,31.255"/>
	</g>
</g>
<g enable-background="new    ">
	<path fill="#FFFFFF" d="M376.135,180.546l-0.307-1.27c3.342-1.596,6.664-6.374,5.217-7.499c-1.261-0.982-4.246,4.134-5.294,5.699
		c-0.338-0.171-0.683-0.401-0.903-0.648c1.666-2.525,3.58-6.6,6.423-6.955c3.694-0.461,2.467,6.582-2.897,9.866l-0.08,0.031
		c0.389,0.246,0.689,0.631,0.816,1.142c1.956-0.876,3.484-2.481,5.243-5.102l0.124-0.186c0.307,0.088,0.722,0.374,0.902,0.646
		c-2.041,3.058-4.049,4.869-6.243,5.859c-0.05,0.28-0.141,0.566-0.267,0.898l-0.893,2.134c-1.202,2.869-4.54,2.803-4.799,0.727
		c-0.203-1.618,1.494-3.053,4.328-4.313c0.263-0.771-0.566-1.173-1.328-1.015l-0.041,0.005l-0.021,0.004L376.135,180.546z
		 M376.04,185.025l0.8-1.87c-1.6,0.854-2.039,1.562-1.969,2.122C374.943,185.859,375.665,185.895,376.04,185.025z"/>
	<path fill="#FFFFFF" d="M386.442,175.845l-0.161,0.399c-0.778,1.867,0.114,2.599,1.441,2.432c1.516-0.188,3.328-1.87,4.66-3.869
		l0.123-0.185c0.307,0.087,0.721,0.375,0.904,0.647c-1.525,2.297-3.716,4.509-6.164,4.815c-2.553,0.318-3.979-1.652-2.918-4.123
		l1.777-4.164c0.715-1.691,1.992-2.779,3.735-2.997c1.763-0.22,3.071,1.135,2.157,3.272l-0.242,0.577
		C390.486,175.653,387.904,176.251,386.442,175.845z M386.932,174.708c0.847,0.188,2.242,0.058,3.059-1.837l0.244-0.578
		c1.007-2.401-1.236-2.479-2.215-0.188L386.932,174.708z"/>
	<path fill="#FFFFFF" d="M397.839,173.955c0.306,0.089,0.722,0.375,0.903,0.647c-1.525,2.299-3.342,4.463-5.126,4.687
		c-1.743,0.218-2.571-1.175-1.856-2.889l5.463-12.948l2.158-0.269l-5.684,13.546c-0.392,0.912-0.081,1.211,0.396,1.15
		c0.954-0.119,2.29-1.739,3.621-3.739L397.839,173.955z"/>
	<path fill="#FFFFFF" d="M408.027,172.683c0.307,0.088,0.722,0.374,0.904,0.646c-1.527,2.299-3.342,4.464-5.127,4.687
		c-1.101,0.138-1.838-0.358-2.045-1.178c-0.931,0.98-1.939,1.677-2.812,1.785c-1.742,0.218-2.57-1.176-1.856-2.888l2.375-5.607
		c0.717-1.691,2.222-2.808,3.384-2.952c1.411-0.178,2.503,0.972,2.534,1.897l1.225-0.153l-2.725,6.536
		c-0.391,0.912-0.08,1.21,0.396,1.15c0.955-0.119,2.291-1.739,3.622-3.738L408.027,172.683z M399.029,176.062
		c-0.392,0.913-0.081,1.211,0.396,1.151c0.893-0.112,2.058-1.247,3.107-3.466l1.312-3.157c0.815-2.081-1.553-2.314-2.463-0.154
		L399.029,176.062z"/>
	<path fill="#FFFFFF" d="M412.797,166.333c0.399-0.345,0.832-0.589,1.352-0.653c1.204-0.151,2.055,0.586,2.191,1.687
		c0.086,0.684-0.08,1.549-0.5,2.569l-1.596,3.761c1.057-0.151,2.218-0.803,3.059-2.003l0.125-0.186
		c0.306,0.089,0.721,0.375,0.902,0.647c-0.936,1.444-2.872,2.486-4.158,2.646c-0.166,0.022-0.312,0.04-0.48,0.041
		c-0.905,1.525-2.217,2.321-3.421,2.471c-1.391,0.174-2.594-0.517-2.778-1.992c-0.085-0.685,0.041-1.521,0.467-2.503l4.784-11.304
		l2.199-0.275L412.797,166.333z M411.86,174.523c-0.851-0.401-1.366-1.158-1.649-2.07l-0.602,1.424
		c-0.192,0.487-0.273,0.854-0.234,1.166c0.067,0.539,0.498,0.781,0.975,0.722C410.89,175.696,411.513,175.283,411.86,174.523z
		 M412.351,173.386l1.728-4.051c0.229-0.536,0.299-0.987,0.255-1.339c-0.073-0.58-0.448-0.893-0.927-0.832
		c-1.223,0.151-2.404,2.85-2.212,4.385C411.303,172.421,411.738,173.042,412.351,173.386z"/>
</g>
<g>
	<g>
		<path fill="#FFFFFF" d="M130.504,109.211l-3.659,2.946c-0.432,0.347-1.233,0.696-1.781,0.772l-10.152,1.441
			c-0.548,0.076-1.255,0.514-1.569,0.97l-2.461,3.57c-0.315,0.456-0.69,0.394-0.835-0.143l-0.828-3.065
			c-0.145-0.534-0.711-0.908-1.259-0.83l-14.779,2.093"/>
	</g>
</g>
</svg>
