<?xml version="1.0" encoding="utf-8"?>
<!-- Generator: Adobe Illustrator 16.0.0, SVG Export Plug-In . SVG Version: 6.00 Build 0)  -->
<!DOCTYPE svg PUBLIC "-//W3C//DTD SVG 1.1//EN" "http://www.w3.org/Graphics/SVG/1.1/DTD/svg11.dtd">
<svg version="1.1" id="Layer_1" xmlns="http://www.w3.org/2000/svg" xmlns:xlink="http://www.w3.org/1999/xlink" x="0px" y="0px"
	 width="305.5px" height="285px" viewBox="0 22.5 305.5 285" enable-background="new 0 22.5 305.5 285" xml:space="preserve">
<g>
	<g>
		<path fill="#C7C7C9" d="M113.736,136.271c-17.733,0-28.669,15.595-28.669,32.475c0,7.75-3.44,13.373-11.467,16.43
			c6.116,11.844,29.98,14.057,40.137,12.226c12.173-2.195,27.35-8.495,30.962-26.288
			C148.903,150.407,131.469,136.271,113.736,136.271z"/>
		<path fill="#C7C7C9" d="M222.389,60.108c-4.424-4.422-10.233-5.906-15.341-1.827l-59.812,52.63
			c-2.954-0.81-5.644-0.639-7.824,0.801l-20.081,16.72c-0.55,0.55-0.528,1.47,0.022,2.02c0.17,0.171,0.363,0.27,0.58,0.334
			c0.219,0.012,0.432,0.02,0.649,0.035c0.006,0,0.012-0.003,0.018-0.005c16.373,1.172,31.092,12.553,30.5,30.57
			c-0.005,0.172-0.01,0.344-0.019,0.518c0.042,0.289,0.171,0.568,0.393,0.79c0.545,0.544,1.423,0.549,1.975,0.016
			c0.006-0.006,0.013-0.009,0.019-0.016c0.021-0.021,0.036-0.046,0.056-0.068l17.233-19.585c1.44-2.177,1.612-4.864,0.805-7.813
			l52.655-59.786C228.298,70.338,226.813,64.532,222.389,60.108z"/>
		<polygon fill="#C7C7C9" points="119.328,128.435 119.331,128.432 119.329,128.435 		"/>
	</g>
	<g>
		<path fill="#2E3192" d="M109.511,134.079c-17.733,0-28.668,15.595-28.668,32.476c0,7.75-3.44,13.372-11.468,16.429
			c6.116,11.844,29.98,14.057,40.137,12.226c12.173-2.194,27.35-8.495,30.962-26.288
			C144.678,148.215,127.243,134.079,109.511,134.079z"/>
		<path fill="#2E3192" d="M218.163,57.917c-4.424-4.422-10.233-5.906-15.341-1.827l-59.811,52.63
			c-2.954-0.81-5.644-0.639-7.825,0.801l-20.081,16.72c-0.55,0.55-0.527,1.47,0.022,2.02c0.17,0.171,0.363,0.27,0.58,0.334
			c0.219,0.012,0.432,0.02,0.648,0.035c0.006,0,0.012-0.003,0.018-0.005c16.373,1.172,31.093,12.553,30.5,30.57
			c-0.005,0.172-0.01,0.344-0.019,0.518c0.042,0.29,0.171,0.568,0.393,0.791c0.545,0.543,1.424,0.548,1.975,0.015
			c0.006-0.005,0.012-0.009,0.019-0.015c0.021-0.022,0.036-0.046,0.056-0.068l17.233-19.585c1.439-2.177,1.612-4.864,0.805-7.813
			l52.655-59.786C224.073,68.147,222.588,62.341,218.163,57.917z"/>
		<polygon fill="#2E3192" points="115.103,126.244 115.105,126.241 115.103,126.243 		"/>
	</g>
</g>
<g>
	<path fill="#7B7BBF" d="M71.424,210.265c0,0-7.275,17.485-5.947,25.377c1.327,7.893,6.852,13.542,12.338,12.619
		c5.488-0.923,8.86-8.069,7.533-15.961C84.021,224.408,71.424,210.265,71.424,210.265z"/>
	<path fill="#ED290F" d="M100.606,247.54c0,0-6.348,13.411-5.34,19.402c1.008,5.99,5.571,10.217,10.191,9.438
		c4.622-0.776,7.552-6.263,6.544-12.254C110.993,258.137,100.606,247.54,100.606,247.54z"/>
	<path fill="#2A8C64" d="M102.85,216.226c0,0-3.652,8.777-2.985,12.738c0.666,3.962,3.439,6.798,6.193,6.334
		c2.755-0.464,4.448-4.05,3.781-8.013C109.172,223.325,102.85,216.226,102.85,216.226z"/>
</g>
</svg>
