<?xml version="1.0" encoding="utf-8"?>
<!-- Generator: Adobe Illustrator 16.0.0, SVG Export Plug-In . SVG Version: 6.00 Build 0)  -->
<!DOCTYPE svg PUBLIC "-//W3C//DTD SVG 1.1//EN" "http://www.w3.org/Graphics/SVG/1.1/DTD/svg11.dtd">
<svg version="1.1" id="Layer_1" xmlns="http://www.w3.org/2000/svg" xmlns:xlink="http://www.w3.org/1999/xlink" x="0px" y="0px"
	 width="85.631px" height="86.566px" viewBox="0 0 85.631 86.566" enable-background="new 0 0 85.631 86.566" xml:space="preserve">
<g id="Layer_4">
	<g>
		<path fill="#AFAFBC" d="M5.222,11.426c0,0,9.358-0.246,17.062-0.246c7.784,0,13.334,1.832,17.061,5.05
			c3.562,3.041,5.963,8.225,5.963,14.126c0,5.902-1.822,10.73-5.136,14.126c-4.307,4.382-9.325,6.975-17.889,7.334
			c-2.365,0.099-4.555,0.122-4.555,0.122v19.185H5.222L5.222,11.426L5.222,11.426z M17.728,41.311
			c1.359,0.132,2.21,0.068,4.225,0.044c6.709-0.08,10.849-4.16,10.849-10.33c0-5.542-3.414-10.093-9.854-10.329
			c-2.567-0.094-5.219,0-5.219,0V41.311z"/>
		<g>
			<path fill="#AFAFBC" d="M50.081,57.759c2.521,1.546,8.468,3.863,12.523,3.863c4.143,0,5.853-1.459,5.853-3.736
				c0-2.278-1.352-4.672-6.485-6.403c-9.098-3.098-12.612-6.805-12.52-11.996c0-8.384,7.024-14.668,17.923-14.668
				c5.133,0,9.235,1.678,11.935,3.044v10.06c-1.984-1.094-7.702-3.537-11.484-3.537c-3.335,0-5.226,1.366-5.226,3.642
				c0,2.096,1.713,3.188,7.117,5.104c8.375,2.915,11.888,7.195,11.977,13.754c0,8.291-6.391,14.884-19.094,14.484
				c-4.359-0.138-9.189-1.86-12.521-3.68L50.081,57.759L50.081,57.759z"/>
		</g>
	</g>
</g>
</svg>
