<?xml version="1.0" encoding="utf-8"?>
<!-- Generator: Adobe Illustrator 16.0.0, SVG Export Plug-In . SVG Version: 6.00 Build 0)  -->
<!DOCTYPE svg PUBLIC "-//W3C//DTD SVG 1.1//EN" "http://www.w3.org/Graphics/SVG/1.1/DTD/svg11.dtd">
<svg version="1.1" id="Layer_1" xmlns="http://www.w3.org/2000/svg" xmlns:xlink="http://www.w3.org/1999/xlink" x="0px" y="0px"
	 width="85.631px" height="86.566px" viewBox="0 0 85.631 86.566" enable-background="new 0 0 85.631 86.566" xml:space="preserve">
<g>
	<path fill="#AFAFBC" d="M28.894,64.471c0.61-0.271,1.229-0.523,1.854-0.757c0.705-0.265,1.415-0.514,2.135-0.73
		c0.896-0.271,1.8-0.516,2.717-0.708c1.235-0.265,2.484-0.458,3.743-0.579c-0.705,2.221-1.486,4.428-2.332,6.62
		c0.036,0.424,0.056,0.852,0.067,1.279c1.703-0.333,3.46-0.514,5.262-0.514s3.562,0.181,5.265,0.514
		c0.011-0.428,0.03-0.855,0.067-1.279c-0.846-2.192-1.627-4.399-2.333-6.62c1.26,0.121,2.508,0.314,3.743,0.579
		c0.917,0.192,1.819,0.438,2.717,0.708c0.722,0.217,1.43,0.466,2.135,0.73c0.627,0.233,1.244,0.485,1.855,0.757
		c4.331,1.927,8.281,4.79,11.521,8.504c8.118-7.011,13.264-17.37,13.264-28.94c0-21.115-17.119-38.232-38.234-38.232
		c-21.114,0-38.232,17.118-38.232,38.232c0,11.57,5.146,21.93,13.265,28.94C20.61,69.261,24.561,66.398,28.894,64.471"/>
	<path fill="#525353" d="M55.789,64.471l2.373,8.16l0.673,0.03c0.438,0,0.745,0.117,0.745,0.554c0,0.726,0.037,1.544,0.108,2.257
		c0.591,0.5,1.31,1.067,1.856,1.618c2.052-1.195,3.979-2.573,5.766-4.115C64.07,69.261,60.12,66.398,55.789,64.471"/>
	<path fill="#525353" d="M51.148,64.389l2.785-0.675c-0.705-0.265-1.413-0.514-2.135-0.73c-0.897-0.271-1.8-0.516-2.717-0.708
		c-1.235-0.265-2.483-0.458-3.743-0.579c0.706,2.221,1.487,4.428,2.333,6.62c-0.037,0.424-0.057,0.852-0.067,1.279
		c1.975,0.391,3.917,1.07,5.712,1.861L51.148,64.389"/>
	<path d="M23.137,77.091c0.444,0.259,0.892,0.512,1.347,0.753c0.16-0.768,0.416-1.829,0.492-2.618
		C24.385,75.728,23.683,76.54,23.137,77.091"/>
	<path d="M53.268,71.387c-1.793-0.794-3.688-1.4-5.663-1.791c-1.703-0.333-3.463-0.514-5.265-0.514s-3.559,0.181-5.262,0.514
		c-1.975,0.391-4.035,0.981-5.83,1.775l-0.191,1.189h22.568L53.268,71.387"/>
	<path fill="#525353" d="M24.906,75.452c0.07-0.712,0.121-1.348,0.121-2.075c0-0.437,0.299-0.717,0.736-0.717l0.717-0.024
		l2.414-8.164c-4.333,1.927-8.283,4.79-11.521,8.504c1.785,1.542,3.713,2.92,5.765,4.115c0.545-0.551,1.114-1.078,1.706-1.581"/>
	<path d="M59.979,76.906c0.154,0.776,0.189,0.931,0.216,0.938c0.457-0.241,0.906-0.494,1.35-0.753
		c-0.547-0.551-1.131-1.096-1.725-1.599L59.979,76.906"/>
	<path fill="#AA9678" d="M53.268,71.387l0.357,1.174h4.616l-2.452-8.09c-0.611-0.271-1.229-0.523-1.855-0.757l-2.785,0.675
		L53.268,71.387"/>
	<path fill="#C4B6A1" d="M26.522,74.195c0.023-0.018,0.048-0.033,0.072-0.053h-0.07C26.524,74.16,26.522,74.177,26.522,74.195"/>
	<path fill="#AA9678" d="M58.157,74.142h-0.07c0.024,0.02,0.049,0.035,0.073,0.053C58.16,74.177,58.157,74.16,58.157,74.142"/>
	<path fill="#AA9678" d="M58.078,74.025l-15.771,0.018l0.032,8.225c5.871,0,11.429-1.325,16.396-3.688
		c-0.322-1.427-0.354-2.962-0.408-4.455C58.303,74.107,58.078,74.025,58.078,74.025"/>
	<path fill="#C4B6A1" d="M42.314,74.078c0,0-15.855-0.021-15.88-0.004c-0.052,1.495-0.36,3.269-0.49,4.506
		c4.969,2.362,10.528,3.688,16.395,3.688l0.01-8.163L42.314,74.078"/>
	<path fill="#786453" d="M42.34,73.352h0.002v0.79H42.34V73.352z"/>
	<path fill="#525353" d="M53.288,67.104c-0.115-0.132-0.234-0.273-0.357-0.435C53.054,66.831,53.173,66.972,53.288,67.104"/>
	<path fill="#AA9678" d="M54.168,67.978c0,0,0.002,0.009,0.007,0.026C54.17,67.987,54.168,67.978,54.168,67.978
		s-0.389-0.307-0.88-0.874C53.779,67.672,54.168,67.978,54.168,67.978"/>
	<path fill="#FFFFFF" d="M65.851,33.386v0.002V33.386"/>
	<path fill="#FFFFFF" d="M67.388,44.395c0-0.006,0-0.008,0-0.013C67.388,44.387,67.388,44.389,67.388,44.395"/>
	<path fill="#AFAFBC" d="M67.388,44.383c0-0.003,0-0.008,0-0.01C67.388,44.375,67.388,44.38,67.388,44.383"/>
	<path fill="#676A6A" d="M67.346,43.787c0,0.01,0.005,0.02,0.007,0.029c0,0.007,0.002,0.012,0.002,0.018v0.004
		c0.018,0.145,0.024,0.298,0.028,0.451c0,0.029,0.005,0.056,0.005,0.084c0,0.002,0,0.007,0,0.01c0,0.005,0,0.007,0,0.013
		c0,0.029-0.005,0.057-0.005,0.089c-0.004,0.149-0.011,0.299-0.028,0.443v0.002c0,0.007-0.002,0.014-0.004,0.022
		c0,0.01-0.005,0.021-0.007,0.032c-0.021,0.157-0.049,0.309-0.084,0.453c-0.002,0.001-0.002,0.001-0.002,0.002l0,0l0.006-0.006
		c0-0.002,0-0.005,0-0.008l0,0l1.002-1.046l-1.008-1.057c0,0.002,0,0.002,0,0.003C67.295,43.472,67.323,43.627,67.346,43.787"/>
	<path d="M67.344,44.984c0.002-0.02,0.009-0.038,0.011-0.057c0.018-0.145,0.024-0.294,0.028-0.443c0-0.035,0.005-0.068,0.005-0.102
		c0-0.031-0.005-0.062-0.005-0.094c-0.004-0.153-0.011-0.307-0.028-0.451c-0.002-0.02-0.007-0.033-0.009-0.051
		c-0.022-0.16-0.051-0.314-0.088-0.461c-0.014-0.052-0.031-0.098-0.047-0.147c-0.09-0.3-0.214-0.564-0.359-0.783
		c-0.02-0.029-0.042-0.058-0.06-0.086c-0.042-0.053-0.081-0.106-0.126-0.154c-0.062-0.068-0.128-0.13-0.196-0.184
		c-0.026-0.02-0.055-0.034-0.081-0.05c-0.06-0.039-0.121-0.073-0.184-0.099c-0.028-0.01-0.055-0.021-0.081-0.029
		c-0.091-0.029-0.181-0.048-0.273-0.048c-0.095,0-0.186,0.019-0.275,0.048c-0.027,0.007-0.054,0.019-0.08,0.03
		c-0.063,0.025-0.126,0.059-0.185,0.098c-0.027,0.017-0.056,0.031-0.082,0.05c-0.068,0.053-0.135,0.116-0.196,0.184
		c-0.042,0.048-0.084,0.101-0.124,0.154c-0.02,0.028-0.039,0.057-0.059,0.086c-0.148,0.22-0.271,0.484-0.362,0.784
		c-0.002,0.011-0.007,0.022-0.011,0.036c-0.04,0.137-0.07,0.282-0.098,0.43c-0.009,0.045-0.018,0.089-0.023,0.135
		c-0.024,0.166-0.036,0.34-0.04,0.519c0,0.023-0.002,0.047-0.002,0.072h0.004c0,1.455,0.688,2.637,1.54,2.637
		c0.146,0,0.286-0.039,0.421-0.104c0.022-0.013,0.044-0.022,0.063-0.034c0.056-0.033,0.11-0.067,0.164-0.109
		c0.028-0.023,0.055-0.052,0.083-0.078c0.066-0.063,0.131-0.136,0.192-0.216c0.042-0.055,0.084-0.109,0.123-0.173
		c0.024-0.041,0.049-0.083,0.071-0.126c0.044-0.079,0.083-0.16,0.121-0.25c0.013-0.031,0.026-0.062,0.04-0.094
		c0.046-0.123,0.088-0.252,0.123-0.387C67.295,45.293,67.323,45.141,67.344,44.984L67.344,44.984z M65.903,44.032
		c-0.317,0-0.575-0.444-0.575-0.99c0-0.544,0.258-0.988,0.575-0.988c0.319,0,0.578,0.443,0.578,0.988
		C66.481,43.588,66.223,44.032,65.903,44.032L65.903,44.032z"/>
	<path fill="#FFFFFF" d="M65.903,42.054c-0.317,0-0.575,0.443-0.575,0.988c0,0.546,0.258,0.99,0.575,0.99
		c0.319,0,0.578-0.444,0.578-0.99C66.481,42.498,66.223,42.054,65.903,42.054"/>
	<path fill="#909393" d="M64.487,43.179L64.487,43.179c0.091-0.3,0.214-0.563,0.362-0.784c0.02-0.03,0.039-0.057,0.059-0.086
		c0.04-0.053,0.082-0.106,0.124-0.154c0.062-0.068,0.128-0.13,0.196-0.184c0.026-0.02,0.055-0.034,0.082-0.05
		c0.059-0.041,0.121-0.073,0.185-0.098c0.026-0.011,0.053-0.023,0.08-0.03c0.09-0.029,0.181-0.048,0.275-0.048
		c0.093,0,0.183,0.019,0.273,0.048c0.026,0.007,0.053,0.019,0.081,0.029c0.062,0.026,0.124,0.059,0.184,0.099
		c0.026,0.017,0.055,0.031,0.081,0.05c0.068,0.053,0.135,0.116,0.196,0.184c0.045,0.048,0.084,0.101,0.126,0.154
		c0.018,0.029,0.04,0.056,0.06,0.086c0.146,0.219,0.27,0.483,0.359,0.783v0.001l-1.36-6.236L64.487,43.179L64.487,43.179"/>
	<path d="M47.808,44.325c-0.003-0.126-0.012-0.25-0.024-0.371c0-0.003-0.003-0.004-0.003-0.005
		c-0.013-0.121-0.032-0.239-0.058-0.356c-0.002-0.003-0.004-0.006-0.004-0.008c-0.026-0.116-0.057-0.229-0.093-0.34
		c-0.002-0.002-0.002-0.004-0.004-0.007c-0.035-0.111-0.078-0.219-0.126-0.325c0-0.001-0.002-0.003-0.002-0.006
		c-0.049-0.105-0.102-0.209-0.158-0.31c-0.175-0.306-0.394-0.585-0.646-0.827c-0.322-0.306-0.702-0.554-1.12-0.728
		c-0.003,0-0.007-0.002-0.01-0.003c-0.207-0.083-0.421-0.149-0.645-0.194c-0.005-0.001-0.012-0.001-0.017-0.002
		c-0.225-0.044-0.454-0.067-0.691-0.067c-0.232,0-0.458,0.023-0.679,0.065c-0.008,0.002-0.016,0.002-0.022,0.004
		c-0.22,0.043-0.431,0.106-0.634,0.188c-0.005,0.002-0.012,0.003-0.017,0.006c-0.205,0.084-0.4,0.185-0.585,0.305
		c-0.001,0-0.003,0-0.003,0c-0.187,0.12-0.361,0.258-0.521,0.407l-0.004,0.012l-0.013,0.004c-0.257,0.245-0.478,0.525-0.654,0.835
		c-0.001,0.003-0.004,0.007-0.007,0.011c-0.054,0.093-0.103,0.193-0.146,0.292c-0.006,0.012-0.011,0.021-0.016,0.033
		c-0.041,0.092-0.076,0.189-0.109,0.286c-0.007,0.019-0.015,0.036-0.021,0.056c-0.028,0.091-0.052,0.183-0.073,0.277
		c-0.007,0.026-0.016,0.052-0.021,0.079c-0.02,0.092-0.033,0.186-0.045,0.281c-0.004,0.028-0.01,0.056-0.012,0.085
		c-0.014,0.124-0.021,0.248-0.021,0.375c0,0.238,0.023,0.473,0.068,0.696c0.001,0.004,0.001,0.01,0.002,0.015
		c0.046,0.225,0.111,0.442,0.197,0.649c0.001,0.003,0.002,0.005,0.003,0.009c0.174,0.42,0.425,0.8,0.733,1.122
		c0.245,0.256,0.527,0.476,0.837,0.649c0.001,0.002,0.004,0.002,0.005,0.004c0.097,0.053,0.196,0.103,0.299,0.148
		c0.008,0.004,0.016,0.008,0.025,0.012c0.094,0.042,0.191,0.077,0.289,0.11c0.017,0.005,0.034,0.013,0.051,0.019
		c0.09,0.029,0.185,0.053,0.278,0.072c0.025,0.008,0.05,0.015,0.075,0.021c0.091,0.019,0.185,0.031,0.279,0.044
		c0.028,0.003,0.057,0.01,0.085,0.013c0.123,0.014,0.247,0.021,0.374,0.021c0.498,0,0.972-0.102,1.402-0.284
		c0.215-0.09,0.42-0.201,0.612-0.332c0.384-0.259,0.714-0.59,0.973-0.974c0.129-0.19,0.241-0.395,0.333-0.611
		c0.182-0.431,0.282-0.903,0.282-1.402c0-0.007-0.002-0.016-0.002-0.024C47.808,44.342,47.808,44.335,47.808,44.325L47.808,44.325z
		 M44.207,43.903c-0.747,0-1.354-0.607-1.354-1.354s0.606-1.352,1.354-1.352s1.353,0.605,1.353,1.352S44.954,43.903,44.207,43.903
		L44.207,43.903z"/>
	<path fill="#FFFFFF" d="M44.207,41.197c-0.747,0-1.354,0.605-1.354,1.352s0.606,1.354,1.354,1.354s1.353-0.607,1.353-1.354
		S44.954,41.197,44.207,41.197"/>
	<path fill="#AFAFBC" d="M41.729,41.766L41.729,41.766l0.013-0.004l0.004-0.012l2.481-7.586v-1.776c0-0.014-0.002-0.021-0.002-0.021
		c-1.38-0.283-2.801-0.438-4.254-0.438c-0.486,0-0.968,0.021-1.446,0.053c-0.07,0.005-0.14,0.008-0.209,0.014
		c-2.49,0.189-4.942,0.838-7.213,1.875c-1.947,0.889-3.756,2.06-5.383,3.449l0,0c0,0.001-0.002,0.002-0.002,0.002
		c-0.437,0.371-0.855,0.763-1.264,1.165c-0.077,0.074-0.154,0.148-0.229,0.224c-0.385,0.388-0.756,0.789-1.116,1.201
		c-0.077,0.09-0.155,0.182-0.232,0.272c-0.36,0.427-0.711,0.86-1.046,1.31c-0.028,0.037-0.053,0.076-0.081,0.114
		c-0.318,0.433-0.621,0.877-0.913,1.329c-0.057,0.089-0.116,0.176-0.171,0.264c-0.236,0.375-0.456,0.758-0.673,1.144h11.301
		L41.729,41.766"/>
	<path fill="#AFAFBC" d="M51.27,40.912c0.022-0.295,0.042-0.591,0.058-0.887c0.022-0.401,0.035-0.802,0.042-1.204
		c0.007-0.312,0.007-0.623,0.004-0.935c0-0.09,0.003-0.18,0.003-0.27c-0.009-0.803-0.04-1.607-0.091-2.412
		c-0.002-0.002-0.004-0.003-0.007-0.005c0-0.001-0.002-0.003-0.002-0.005c-0.002-0.002-0.016-0.009-0.026-0.015
		c-0.009-0.005-0.018-0.011-0.035-0.021c-0.147-0.085-0.51-0.293-0.836-0.478c-0.007-0.004-0.014-0.008-0.022-0.012
		c-0.081-0.046-0.161-0.091-0.233-0.132c0-0.001-0.002-0.001-0.002-0.002c-0.064-0.035-0.115-0.064-0.163-0.091
		c-0.009-0.005-0.022-0.012-0.031-0.018c-0.053-0.029-0.095-0.052-0.119-0.064c-0.519-0.27-1.05-0.519-1.589-0.747
		c-1.285-0.543-3.017-1.019-3.991-1.249v1.796l2.459,7.598l0.003,0.007c0.253,0.241,0.472,0.521,0.646,0.827l0,0
		c0.057,0.1,0.109,0.204,0.158,0.31c0,0.003,0.002,0.005,0.002,0.006c0.048,0.106,0.091,0.214,0.126,0.325
		c0.002,0.003,0.002,0.005,0.004,0.007c0.036,0.111,0.066,0.224,0.093,0.34c0,0.002,0.002,0.005,0.004,0.008
		c0.025,0.117,0.045,0.235,0.058,0.356c0,0.001,0.003,0.002,0.003,0.005c0.013,0.121,0.021,0.245,0.024,0.371l0.009,0.02h3.01
		c0.203-1.102,0.347-2.218,0.438-3.338C51.264,40.975,51.268,40.943,51.27,40.912"/>
	<path fill="#FCB03F" d="M55.209,38.225c-0.002,0.003-0.005,0.007-0.007,0.011C55.204,38.233,55.207,38.229,55.209,38.225"/>
	<path fill="#909393" d="M41.746,41.751L41.746,41.751c0.16-0.149,0.335-0.287,0.521-0.407c0,0,0.002,0,0.003,0
		c0.185-0.12,0.38-0.22,0.585-0.305c0.005-0.003,0.012-0.004,0.017-0.006c0.203-0.082,0.414-0.145,0.634-0.188
		c0.007-0.002,0.015-0.002,0.022-0.004c0.221-0.042,0.446-0.065,0.679-0.065c0.237,0,0.467,0.023,0.691,0.067
		c0.005,0.001,0.012,0.001,0.017,0.002c0.224,0.045,0.438,0.111,0.645,0.194c0.003,0.001,0.007,0.003,0.01,0.003
		c0.418,0.173,0.798,0.421,1.12,0.728l-0.003-0.007l-2.459-7.598L41.746,41.751"/>
	<path fill="#676A6A" d="M40.873,45.736c-0.086-0.207-0.151-0.425-0.197-0.649c-0.001-0.005-0.001-0.011-0.002-0.015
		c-0.045-0.224-0.068-0.458-0.068-0.696c0-0.127,0.007-0.251,0.021-0.375c0.002-0.029,0.008-0.057,0.012-0.085
		c0.012-0.095,0.025-0.188,0.045-0.281c0.005-0.027,0.014-0.053,0.021-0.079c0.021-0.094,0.045-0.186,0.073-0.277
		c0.007-0.02,0.014-0.037,0.021-0.056c0.033-0.097,0.068-0.193,0.109-0.286c0.005-0.011,0.01-0.021,0.016-0.033
		c0.044-0.1,0.093-0.199,0.146-0.292c0.003-0.004,0.006-0.008,0.007-0.011c0.177-0.31,0.397-0.59,0.654-0.835l-10.438,2.578h-0.02
		l10.337,2.522c-0.309-0.322-0.56-0.702-0.733-1.122C40.875,45.741,40.874,45.739,40.873,45.736"/>
	<path fill="#AFAFBC" d="M64.355,43.78c0.006-0.046,0.015-0.089,0.023-0.135c0.027-0.148,0.058-0.293,0.098-0.43
		c0.004-0.016,0.007-0.033,0.011-0.05l1.363-6.234l-0.002-3.556c-1.112-0.918-2.303-1.421-3.545-1.421
		c-1.565,0-3.028,0.866-4.12,1.935c-1.197,1.17-2.121,2.642-2.869,4.127c-0.033,0.068-0.068,0.135-0.104,0.203
		c0.231,0.2,0.459,0.402,0.684,0.608c0.51,0.465,1.006,0.943,1.498,1.428c0.229,0.226,0.454,0.456,0.679,0.687
		c0.241,0.243,0.479,0.486,0.713,0.732c0.304,0.318,0.604,0.639,0.901,0.964c0.124,0.135,0.25,0.272,0.373,0.41
		c0.357,0.396,0.715,0.795,1.063,1.197l0.002,0.002c0.06,0.061,0.1,0.105,0.114,0.124h3.072c0-0.025,0.005-0.049,0.005-0.072
		C64.319,44.12,64.331,43.946,64.355,43.78"/>
	<path fill="#AFAFBC" d="M55.211,38.236c0-0.004-0.002-0.007-0.002-0.01c-0.002,0.004-0.005,0.007-0.007,0.011
		c0.002,0.001,0.011,0.011,0.014,0.013C55.216,38.244,55.213,38.24,55.211,38.236"/>
	<path fill="#525353" d="M18.139,48.267c0.009-0.021,0.019-0.044,0.027-0.066c0.198-0.519,0.415-1.027,0.642-1.533
		c0.064-0.142,0.129-0.28,0.195-0.42c0.187-0.397,0.384-0.788,0.587-1.176c0.083-0.157,0.165-0.315,0.25-0.473
		c0.047-0.086,0.102-0.169,0.15-0.255c0.217-0.386,0.438-0.77,0.673-1.144c0.056-0.089,0.114-0.174,0.171-0.264
		c0.292-0.451,0.595-0.896,0.913-1.329c0.028-0.039,0.053-0.077,0.081-0.114c0.334-0.449,0.686-0.883,1.046-1.31
		c0.077-0.091,0.153-0.182,0.232-0.272c0.36-0.412,0.731-0.813,1.116-1.201c0.076-0.076,0.153-0.15,0.229-0.224
		c0.409-0.401,0.828-0.793,1.264-1.165c0,0,0.002-0.002,0.002-0.002c1.718-5.754,7.265-9.29,13.484-9.29
		c2.502,0,4.993,0.721,7.125,2.026c2.188,1.338,3.679,2.646,4.839,4.932c0.005,0.012,0.012,0.023,0.016,0.034
		c0.031,0.058,0.064,0.114,0.093,0.172c0,0.002,0.002,0.003,0.002,0.005c0.003,0.002,0.005,0.003,0.007,0.005
		c0.969,0.596,1.895,1.273,2.772,2.014c0.293,0.248,0.582,0.501,0.864,0.763c0.093,0.086,0.188,0.167,0.28,0.254
		c0.002-0.004,0.005-0.007,0.007-0.011c0-0.002,0.002-0.004,0.002-0.007c0.031-0.065,0.064-0.131,0.095-0.195
		c0.878-5.531,3.661-8.547,6.54-8.547c2.168,0,3.744,1.293,4.936,4.775l0.013,0.038c0,0.001,0.003,0.003,0.003,0.004
		c0.335,0.365,0.664,0.768,0.981,1.208l0,0c0.006,0.008,0.013,0.017,0.018,0.025l0,0l0,0c0.018,0.051,0.033,0.103,0.051,0.153v0
		L67.8,35.498C64.221,24.9,54.196,17.269,42.39,17.269c-14.809,0-26.814,12.005-26.814,26.814c0,2.92,0.467,5.731,1.333,8.346
		c0.001-0.005,0.002-0.009,0.004-0.016c0.17-0.79,0.374-1.572,0.611-2.349C17.708,49.461,17.914,48.861,18.139,48.267"/>
	<path fill="#FFFFFF" d="M68.201,44.381l-0.938,1.045l0,0c0,0.003,0,0.006,0,0.008c-0.037,0.137-0.079,0.265-0.127,0.391
		c-0.014,0.031-0.027,0.062-0.04,0.094c-0.038,0.09-0.077,0.171-0.121,0.25c-0.022,0.043-0.047,0.085-0.071,0.126
		c-0.039,0.063-0.081,0.118-0.123,0.173c-0.062,0.08-0.126,0.152-0.192,0.216c-0.028,0.026-0.055,0.055-0.083,0.078
		c-0.054,0.042-0.108,0.076-0.164,0.109c-0.021,0.012-0.041,0.021-0.063,0.034c-0.135,0.064-0.275,0.104-0.421,0.104
		c-0.852,0-1.54-1.182-1.54-2.637h-3.088c0.003,0,0.003,0.001,0.003,0.002c0.573,0.662,1.136,1.333,1.693,2.011
		c0.005,0.006,0.011,0.015,0.02,0.023c0.541,0.661,1.072,1.326,1.6,1.995c0.026,0.032,0.051,0.065,0.077,0.099
		c0.498,0.638,0.992,1.277,1.482,1.919c0.046,0.062,0.095,0.126,0.143,0.188c0.519,0.68,1.03,1.365,1.54,2.047
		c0.004,0.004,0.006,0.009,0.011,0.016c0.882-2.611,1.376-5.398,1.405-8.299l-0.867-0.034L68.201,44.381"/>
	<path d="M38.315,31.996c0.07-0.006,0.14-0.009,0.209-0.014c0.479-0.032,0.96-0.053,1.446-0.053c1.454,0,2.875,0.155,4.254,0.438
		h0.002c0.975,0.23,2.706,0.706,3.991,1.249c0.539,0.228,1.07,0.477,1.589,0.747c0.024,0.012,0.066,0.035,0.119,0.064
		c0.009,0.005,0.022,0.012,0.031,0.018c0.048,0.027,0.101,0.057,0.163,0.091c0,0.001,0.002,0.001,0.002,0.002
		c0.072,0.041,0.152,0.085,0.233,0.132c0.009,0.004,0.016,0.008,0.022,0.012c0.331,0.188,0.697,0.397,0.836,0.478
		c0.018,0.01,0.026,0.015,0.035,0.021c0.009,0.004,0.024,0.013,0.026,0.015c-0.028-0.058-0.062-0.115-0.093-0.172
		c-0.004-0.011-0.011-0.022-0.016-0.034c-1.16-2.286-2.941-4.247-5.131-5.585c-2.133-1.305-4.623-2.026-7.125-2.026
		c-6.219,0-11.475,4.189-13.192,9.943c1.626-1.389,3.436-2.56,5.383-3.449C33.373,32.834,35.826,32.186,38.315,31.996"/>
	<path fill="#AFAFBC" d="M67.796,35.527L67.796,35.527L67.796,35.527c-0.005-0.008-0.012-0.017-0.018-0.025l0,0
		c-0.317-0.441-0.646-0.843-0.981-1.208c0-0.001-0.003-0.003-0.003-0.004c0,0,0.003,0.003,0.003,0.004
		c-0.003-0.004-0.005-0.007-0.009-0.011c-0.152-0.166-0.307-0.323-0.464-0.473c-0.06-0.057-0.119-0.106-0.179-0.16
		c-0.099-0.089-0.196-0.181-0.295-0.264v3.557l1.36,6.236l0,0c0.016,0.049,0.033,0.093,0.047,0.144l0.943,1.058l0.009-0.01h0.986
		c0.002-0.092,0.007-0.182,0.007-0.273v-0.002c0-2.941-0.483-5.768-1.356-8.416v0C67.829,35.63,67.813,35.578,67.796,35.527"/>
	<path d="M58.184,33.889c1.092-1.069,2.555-1.935,4.12-1.935c1.242,0,2.433,0.503,3.545,1.421c0,0,0.002,0.008,0.002,0.011v0.002
		v-0.002c0.099,0.083,0.196,0.174,0.295,0.264c0.06,0.054,0.119,0.104,0.179,0.16c0.157,0.15,0.312,0.308,0.464,0.473
		c0.004,0.003,0.006,0.007,0.009,0.011c0-0.001-0.003-0.003-0.003-0.004v0l-0.013-0.038c-1.191-3.481-3.112-5.744-5.282-5.744
		c-2.876,0-5.315,3.984-6.193,9.516l0.009-0.008C56.062,36.531,56.986,35.059,58.184,33.889"/>
	<path d="M54.294,67.881c0,0-0.387-0.305-0.878-0.871c-0.117-0.132-0.234-0.275-0.359-0.437c-0.093-0.121-0.186-0.252-0.28-0.389
		C52.715,66.094,52.65,66,52.589,65.9c-0.186-0.293-0.335-0.652-0.499-1.006c-0.189-0.408-0.189-0.682-0.297-1.065
		c-0.077-0.271-0.144-0.558-0.19-0.855c-0.072-0.443-0.107-0.915-0.09-1.409c0.007-0.273,0.035-0.556,0.077-0.843
		c0.037-0.277,0.093-0.56,0.165-0.849c0.219-0.867,0.591-1.791,1.176-2.764c0.002-0.005,0.147-0.333,0.149-0.335
		c0.192-0.32,0.234-0.307,0.415-0.611c2.559-4.318,3.939-7.582,3.265-12.609c-0.051-0.358-0.182-1.162-0.254-1.54
		c-0.038,0.262-0.181,1.094-0.186,1.111c-0.026,0.116-0.095,0.24-0.121,0.318c-1.111,3.288-2.86,5.707-5.377,8.437
		c-0.342,0.373-0.699,0.748-1.065,1.127c-0.613,0.638-1.26,1.288-1.942,1.968c-0.271,0.271-0.55,0.545-0.832,0.827
		c-0.261,0.256-0.583,0.805-0.969,1.211c-0.237,0.663-0.508,1.415-0.736,2.205c-0.104-0.04-0.201-0.075-0.307-0.114
		c-4.889-1.891-8.162-4.418-8.162-4.418s2.519,3.279,6.761,6.358c0.411,0.298,0.816,0.554,1.213,0.785
		c-0.175,2.771,1.047,5.43,6.566,6.222c0.931,0.135,1.886,0.128,2.847,0.02c-0.009-0.026,0.056-0.026,0.051-0.044
		c-0.007-0.016,0.051-0.058,0.051-0.058"/>
	<path fill="#9F2254" d="M51.343,60.751c4.898,0.789,12.147,0.659,19.673-2.863c0.181-0.086,0.38,0.139,0.562,0.049
		c0,0-5.144,5.253-11.285,8.225c-0.182,0.086-0.357,0.179-0.539,0.26c-0.593,0.271-1.197,0.51-1.804,0.726
		c-1.188,0.426-2.391,0.752-3.588,0.902c-0.056,0.007-0.11,0.016-0.166,0.021c-0.009-0.026-0.016-0.051-0.021-0.065
		c-0.005-0.018-0.007-0.026-0.007-0.026s-0.389-0.307-0.88-0.874c-0.115-0.132-0.234-0.273-0.357-0.435
		c-0.095-0.121-0.188-0.251-0.28-0.388c-0.063-0.093-0.128-0.186-0.189-0.285c-0.186-0.295-0.366-0.619-0.529-0.972
		c-0.163-0.354-0.309-0.737-0.426-1.147c-0.077-0.271-0.144-0.558-0.192-0.855c-0.07-0.443-0.105-0.915-0.09-1.412
		c0.009-0.273,0.037-0.553,0.079-0.84L51.343,60.751"/>
	<path fill="#FCB03F" d="M47.834,55.173c0.682-0.68,1.327-1.33,1.94-1.967c0.366-0.38,0.724-0.755,1.065-1.125
		c2.517-2.732,4.362-5.288,5.477-8.577c0.023-0.078,0.051-0.179,0.077-0.295c0.002-0.019,0.009-0.036,0.011-0.054
		c0.026-0.123,0.053-0.259,0.077-0.413c0.011-0.106,0.342-0.321,0.353-0.42c-0.279-1.431-0.922-2.937-1.623-4.086
		c0.002,0.005,0.005,0.009,0.005,0.014c-0.003-0.002-0.012-0.012-0.014-0.013c-0.093-0.086-0.188-0.168-0.28-0.254
		c-0.282-0.261-0.571-0.515-0.864-0.763c-0.878-0.741-1.804-1.418-2.772-2.014c0.051,0.804,0.082,1.608,0.091,2.412
		c0,0.089-0.003,0.179-0.003,0.27c0.003,0.312,0.003,0.623-0.004,0.935c-0.007,0.401-0.02,0.803-0.042,1.204
		c-0.016,0.296-0.035,0.592-0.058,0.887c-0.002,0.031-0.006,0.063-0.006,0.094c-0.091,1.121-0.234,2.236-0.438,3.338l-0.353,1.673
		c-0.739,2.995-2.238,5.71-3.474,8.516c-0.326,0.743-0.638,1.495-0.908,2.263c-0.024,0.068-0.051,0.144-0.078,0.217
		c0.386-0.406,0.727-0.757,0.985-1.013C47.282,55.719,47.561,55.446,47.834,55.173"/>
	<path fill="#525353" d="M31.647,71.279c1.795-0.791,3.456-1.292,5.431-1.683c-0.012-0.428-0.031-0.855-0.067-1.279
		c0.846-2.192,1.627-4.399,2.332-6.62c-1.258,0.121-2.507,0.314-3.743,0.579c-0.917,0.192-1.821,0.438-2.717,0.708
		c-0.72,0.217-1.43,0.466-2.135,0.73l2.787,0.675l-2.243,7.038L31.647,71.279"/>
	<path fill="#DF0067" d="M66.104,50.42c-0.49-0.642-0.984-1.281-1.482-1.919c-0.026-0.033-0.051-0.066-0.077-0.099
		c-0.527-0.669-1.059-1.334-1.6-1.995c-0.009-0.009-0.015-0.018-0.02-0.023c-0.558-0.678-1.12-1.349-1.693-2.011
		c-0.035-0.044-0.073-0.085-0.11-0.128c-0.349-0.402-0.706-0.801-1.063-1.197c-0.123-0.138-0.249-0.275-0.373-0.41
		c-0.297-0.325-0.598-0.646-0.901-0.964c-0.234-0.246-0.472-0.489-0.713-0.732c-0.225-0.23-0.449-0.46-0.679-0.687
		c-0.492-0.485-0.988-0.963-1.498-1.428c-0.225-0.206-0.452-0.408-0.684-0.608c0,0.003-0.002,0.005-0.002,0.007
		c0.482,1.393,1.036,2.802,1.314,4.256c0.072,0.377,0.13,0.744,0.179,1.104c0.675,5.026-0.936,8.309-3.494,12.625
		c-0.183,0.309-0.37,0.624-0.564,0.943c-0.584,0.978-0.957,1.899-1.175,2.768c-0.073,0.289-0.128,0.571-0.166,0.85
		c5.016,0.808,12.559,0.957,20.275-2.834c0,0-1.513-2.224-3.791-5.282c-0.51-0.682-1.021-1.367-1.54-2.047
		C66.199,50.546,66.15,50.481,66.104,50.42"/>
	<path fill="#AA9678" d="M31.024,72.686l2.509-8.297l-2.787-0.675c-0.625,0.233-1.243,0.485-1.854,0.757l-2.485,8.215l2.774,0.044
		L31.024,72.686"/>
	<path fill="#FFFFFF" d="M32.789,69.096c0.245,0.095,0.493,0.181,0.742,0.267c2.773,0.973,5.752,1.506,8.859,1.506
		c3.542,0,6.92-0.692,10.014-1.938c0.163-0.066,0.324-0.139,0.485-0.207c0.265-0.112,0.525-0.228,0.785-0.349
		c0.229-0.105,0.461-0.214,0.688-0.326c-0.056,0.007-0.11,0.016-0.166,0.021c-0.961,0.108-1.916,0.115-2.847-0.02
		c-5.52-0.792-6.741-3.451-6.566-6.222c-0.396-0.231-0.802-0.487-1.213-0.785c-4.243-3.079-6.761-6.358-6.761-6.358
		s3.273,2.527,8.162,4.418c0.105,0.039,0.203,0.074,0.307,0.114c0.229-0.79,0.499-1.542,0.736-2.205
		c0.027-0.073,0.054-0.148,0.078-0.217c0.271-0.768,0.582-1.52,0.908-2.263c1.235-2.806,2.734-5.521,3.474-8.516l0.353-1.673H47.81
		v0.001c0,0.001,0,0.003,0,0.006h-0.002c0,0.009,0.002,0.018,0.002,0.024c0,0.499-0.101,0.972-0.282,1.402
		c-0.092,0.217-0.204,0.421-0.333,0.611c-0.259,0.384-0.589,0.715-0.973,0.974c-0.192,0.131-0.397,0.242-0.612,0.332
		c-0.431,0.183-0.904,0.284-1.402,0.284c-0.127,0-0.251-0.007-0.374-0.021c-0.028-0.003-0.057-0.01-0.085-0.013
		c-0.095-0.013-0.188-0.025-0.279-0.044c-0.025-0.006-0.05-0.013-0.075-0.021c-0.094-0.02-0.188-0.043-0.278-0.072
		c-0.017-0.007-0.034-0.014-0.051-0.019c-0.098-0.033-0.195-0.068-0.289-0.11c-0.01-0.004-0.018-0.008-0.025-0.012
		c-0.103-0.046-0.202-0.096-0.299-0.148l-0.005-0.004c-0.31-0.174-0.592-0.394-0.837-0.649l-10.337-2.522H19.991
		c-0.048,0.086-0.103,0.169-0.15,0.255c-0.086,0.157-0.167,0.316-0.25,0.473c-0.204,0.388-0.401,0.778-0.587,1.176
		c-0.065,0.14-0.131,0.278-0.195,0.42c-0.227,0.506-0.443,1.015-0.642,1.533c-0.009,0.022-0.019,0.045-0.027,0.066
		c-0.225,0.594-0.431,1.193-0.616,1.798c-0.238,0.776-0.441,1.559-0.611,2.349c1.776,5.416,5.232,10.072,9.749,13.354
		c0.131,0.095,0.271,0.179,0.403,0.271c0.764,0.536,1.553,1.035,2.373,1.489C30.511,68.124,31.629,68.653,32.789,69.096"/>
	<path fill="#8B7460" d="M59.838,75.51c-0.068-0.712-0.112-1.432-0.112-2.157c0-0.437-0.354-0.791-0.789-0.791h-33.19
		c-0.437,0-0.791,0.354-0.791,0.791c0,0.726-0.043,1.445-0.113,2.157c-0.077,0.787-0.198,1.566-0.358,2.334
		c0.481,0.253,0.967,0.5,1.46,0.736c0.324-1.427,0.524-2.892,0.577-4.385c0-0.018,0.002-0.035,0.002-0.053h31.633
		c0,0.018,0.003,0.035,0.003,0.053c0.053,1.493,0.253,2.958,0.575,4.385c0.496-0.236,0.979-0.483,1.46-0.736
		C60.037,77.076,59.915,76.297,59.838,75.51"/>
</g>
</svg>
