<?xml version="1.0" encoding="utf-8"?>
<!-- Generator: Adobe Illustrator 16.0.0, SVG Export Plug-In . SVG Version: 6.00 Build 0)  -->
<!DOCTYPE svg PUBLIC "-//W3C//DTD SVG 1.1//EN" "http://www.w3.org/Graphics/SVG/1.1/DTD/svg11.dtd">
<svg version="1.1" id="Layer_1" xmlns="http://www.w3.org/2000/svg" xmlns:xlink="http://www.w3.org/1999/xlink" x="0px" y="0px"
	 width="85.631px" height="86.566px" viewBox="0 0 85.631 86.566" enable-background="new 0 0 85.631 86.566" xml:space="preserve">
<linearGradient id="SVGID_1_" gradientUnits="userSpaceOnUse" x1="-472.021" y1="-522.4414" x2="-472.021" y2="-522.4414" gradientTransform="matrix(1 0 0 1 1054.4297 817.1758)">
	<stop  offset="0" style="stop-color:#FFAA2A"/>
	<stop  offset="1" style="stop-color:#FFC06C"/>
</linearGradient>
<path fill="url(#SVGID_1_)" d="M582.409,294.734"/>
<linearGradient id="SVGID_2_" gradientUnits="userSpaceOnUse" x1="-169.2349" y1="-818.9199" x2="-169.2349" y2="-818.9199" gradientTransform="matrix(1 0 0 1 1054.4297 817.1758)">
	<stop  offset="0" style="stop-color:#FFAA2A"/>
	<stop  offset="1" style="stop-color:#FFC06C"/>
</linearGradient>
<path fill="url(#SVGID_2_)" d="M885.195-1.744"/>
<g>
	<defs>
		<path id="SVGID_3_" d="M49.445,66.2L64.94,41.022l6.484-5.071L49.445,66.2z M24.005,42.531h35.62L41.817,74.17L24.005,42.531z
			 M12.08,35.951l6.484,5.071L34.059,66.2L12.08,35.951z M14.805,18.999l11.331,5.386l-8.055,11.697L7.963,28.279L14.805,18.999z
			 M52.827,12.175l10.354,4.447l-10.396,4.883H30.845L20.45,16.623l10.238-4.45L52.827,12.175z M60.525,38.396h-37.42l7.668-13.573
			h22.085L60.525,38.396z M75.542,28.279l-10.12,7.802l-8.054-11.697L68.7,18.999L75.542,28.279z M69.287,15.374L55.892,9.639
			H27.738l-13.395,5.735L3.48,27.762l38.337,51.166l38.334-51.166L69.287,15.374z"/>
	</defs>
	<use xlink:href="#SVGID_3_"  overflow="visible" fill-rule="evenodd" clip-rule="evenodd" fill="#AFAFBC"/>
	<clipPath id="SVGID_4_">
		<use xlink:href="#SVGID_3_"  overflow="visible"/>
	</clipPath>
	<g clip-path="url(#SVGID_4_)">
		<defs>
			<rect id="SVGID_5_" x="-22.967" y="-19.212" width="129.579" height="129.578"/>
		</defs>
		<use xlink:href="#SVGID_5_"  overflow="visible" fill="#AFAFBC"/>
		<clipPath id="SVGID_6_">
			<use xlink:href="#SVGID_5_"  overflow="visible"/>
		</clipPath>
		<rect x="-79.362" y="-235.153" clip-path="url(#SVGID_6_)" fill="#FFC700" width="77.935" height="70.554"/>
	</g>
</g>
</svg>
